<?xml version="1.0" standalone="no"?>
<!DOCTYPE svg PUBLIC "-//W3C//DTD SVG 1.1//EN" "http://www.w3.org/Graphics/SVG/1.1/DTD/svg11.dtd" >
<svg xmlns="http://www.w3.org/2000/svg">
<metadata>Generated by IcoMoon</metadata>
<defs>
<font id="tuniu" horiz-adv-x="512">
<font-face units-per-em="512" ascent="480" descent="-32" />
<missing-glyph horiz-adv-x="512" />
<glyph unicode="&#x20;" horiz-adv-x="256" d="" />
<glyph unicode="&#xe600;" glyph-name="back" d="M445.76 268.272l-265.328-0.32 110.912 105.584c18.528 17.568 18.528 46.064 0 63.632-18.56 17.552-48.608 17.552-67.136 0l-182.672-173.888c-3.152-1.824-6.16-3.904-8.88-6.48-9.552-9.040-14.096-20.96-13.808-32.8-0.288-11.84 4.272-23.744 13.808-32.8 2.72-2.576 5.744-4.672 8.896-6.48l182.656-173.872c18.544-17.568 48.576-17.568 67.136 0 18.528 17.584 18.528 46.064 0 63.632l-108.752 103.52 263.168 0.32c26.224 0 47.488 20.144 47.488 44.992 0 24.832-21.264 44.96-47.488 44.96z" />
<glyph unicode="&#xe601;" glyph-name="time" d="M420 14.416c5.040 0 9.104-4.064 9.104-9.088 0-5.040 0-27.328 0-27.328h-346.224c0 0 0 22.288 0 27.328 0 5.024 4.080 9.088 9.104 9.088h30.432c1.52 121.344 80.784 160.464 80.784 209.504 0 49.28-80.72 52.544-81.472 209.648h-29.728c-5.024 0-9.104 4.080-9.104 9.104s0 27.328 0 27.328h346.224c0 0 0-22.304 0-27.328s-4.064-9.104-9.104-9.104h-27.872c-0.768-157.104-81.472-160.368-81.472-209.648 0-49.040 79.248-88.144 80.768-209.488h28.56zM285.36 223.92c0 49.488 80.72 52.544 81.504 209.648h-219.856c0.752-157.104 81.472-160.16 81.472-209.648 0-47.584-79.28-87.712-80.768-209.488h13.808c3.232 10.832 14.016 23.808 32.608 33.44l24.176 12.336c15.2 7.856 24.304 13.136 27.328 15.872 3.024 2.752 6.464 8.864 10.304 18.368 4-9.52 7.472-15.632 10.384-18.368s11.952-8.016 27.056-15.872l24.048-12.336c18.496-9.632 29.232-22.608 32.448-33.44h16.256c-1.488 121.776-80.768 161.904-80.768 209.488zM266.384 250.656c-2.192-4.304-4-12.48-5.472-24.544-0.368-3.648-1.184-9.12-2.464-16.432-1.28 7.312-2.096 12.784-2.464 16.432-1.472 12.064-3.296 20.24-5.504 24.544-2.192 4.288-8.432 12-18.688 23.152l-22.816 24.928c-15.568 16.8-25.568 28.848-29.968 36.176 27.040-17.232 53.44-25.824 79.216-25.824s52.256 8.608 79.488 25.824c-4.56-7.328-14.592-19.376-30.064-36.176l-22.704-24.928c-10.16-11.152-16.368-18.88-18.56-23.152z" />
<glyph unicode="&#xe602;" glyph-name="place" d="M263.952 472.992c-98.144 0-177.712-83.632-177.712-186.752s177.712-311.248 177.712-311.248 177.728 208.128 177.728 311.248-79.568 186.752-177.728 186.752zM263.952 161.76c-65.424 0-118.48 55.728-118.48 124.48s53.040 124.496 118.48 124.496 118.48-55.744 118.48-124.496-53.056-124.48-118.48-124.48z" />
<glyph unicode="&#xe603;" glyph-name="hamburger" d="M480.992 206.208h-449.984c-13.808 0-24.992 10.64-24.992 23.776 0 13.152 11.2 23.808 24.992 23.808h449.968c13.808 0 24.992-10.656 24.992-23.808 0.016-13.136-11.168-23.776-24.976-23.776zM480.992 396.64h-449.984c-13.808 0-24.992 10.672-24.992 23.808s11.2 23.808 24.992 23.808h449.968c13.808 0 24.992-10.672 24.992-23.808s-11.168-23.808-24.976-23.808zM31.008 63.328h449.968c13.808 0 24.992-10.672 24.992-23.792 0-13.136-11.184-23.792-24.992-23.792h-449.968c-13.808 0-24.992 10.656-24.992 23.792 0 13.12 11.2 23.792 24.992 23.792z" />
<glyph unicode="&#xe604;" glyph-name="search-small" d="M490.224 55.552l-109.104 109.088c18.976 30.784 30.464 66.688 30.464 105.504 0 111.44-90.32 201.808-201.712 201.808-111.424 0-201.728-90.368-201.728-201.808s90.32-201.792 201.728-201.792c38.784 0 74.656 11.472 105.424 30.464l109.056-109.152c18.192-18.16 47.664-18.16 65.84 0 18.176 18.224 18.176 47.696 0.032 65.888zM209.888 130.416c-77.12 0-139.664 62.56-139.664 139.728 0 77.152 62.528 139.696 139.664 139.696 77.12 0 139.648-62.544 139.648-139.696s-62.528-139.728-139.648-139.728z" />
<glyph unicode="&#xe605;" glyph-name="prompt" d="M417.712 35.328h-107.808c-14.896 0-26.96 12.080-26.96 26.96v107.808c0 14.88 12.064 26.96 26.96 26.96h107.808c14.88 0 26.944-12.080 26.944-26.96v-107.808c0-14.88-12.064-26.96-26.944-26.96zM417.712 156.624c0 7.44-6.032 13.472-13.488 13.472h-80.848c-7.456 0-13.488-6.032-13.488-13.472v-80.864c0-7.44 6.032-13.488 13.488-13.488h80.848c7.456 0 13.488 6.048 13.488 13.488v80.864zM417.712 250.96h-107.808c-14.896 0-26.96 12.048-26.96 26.96v107.792c0 14.88 12.064 26.96 26.96 26.96h107.808c14.88 0 26.944-12.064 26.944-26.96v-107.808c0-14.896-12.064-26.944-26.944-26.944zM417.712 372.24c0 7.44-6.032 13.472-13.488 13.472h-80.848c-7.456 0-13.488-6.032-13.488-13.472v-80.848c0-7.456 6.032-13.472 13.488-13.472h80.848c7.456 0 13.488 6.016 13.488 13.472v80.848zM202.096 35.328h-107.792c-14.896 0-26.96 12.080-26.96 26.96v107.808c0 14.88 12.064 26.96 26.96 26.96h107.792c14.896 0 26.96-12.080 26.96-26.96v-107.808c-0.016-14.88-12.064-26.96-26.96-26.96zM202.096 156.624c0 7.44-6.032 13.472-13.472 13.472h-80.864c-7.44 0-13.472-6.032-13.472-13.472v-80.864c0-7.44 6.032-13.488 13.472-13.488h80.864c7.44 0 13.472 6.048 13.472 13.488v80.864zM202.096 250.96h-107.792c-14.896 0-26.96 12.048-26.96 26.96v107.792c0 14.88 12.064 26.96 26.96 26.96h107.792c14.896 0 26.96-12.064 26.96-26.96v-107.808c-0.016-14.896-12.064-26.944-26.96-26.944zM202.096 372.24c0 7.44-6.032 13.472-13.472 13.472h-80.864c-7.44 0-13.472-6.032-13.472-13.472v-80.848c0-7.456 6.032-13.472 13.472-13.472h80.864c7.44 0 13.472 6.016 13.472 13.472v80.848z" />
<glyph unicode="&#xe606;" glyph-name="new" d="M499.376 284.4c-4.208 12.256-15.104 21.2-28.208 23.152l-127.648 18.96-55.472 115.104c-5.824 12.080-18.304 19.84-32.048 19.84-13.728 0-26.208-7.744-32.048-19.84l-55.472-115.104-127.616-18.96c-13.12-1.952-24-10.896-28.224-23.152-4.24-12.272-1.040-25.76 8.224-35.008l93.52-93.328-21.696-129.472c-2.192-13.024 3.472-26.144 14.544-33.744 6.080-4.176 13.248-6.288 20.384-6.288 5.872 0 11.776 1.424 17.168 4.288l111.216 59.888 111.264-59.888c5.36-2.864 11.28-4.288 17.12-4.288 7.152 0 14.32 2.112 20.384 6.288 11.104 7.616 16.704 20.72 14.528 33.744l-21.68 129.472 93.552 93.328c9.248 9.248 12.432 22.736 8.208 35.008zM372.288 180.128c-7.84-7.808-11.392-18.816-9.616-29.632l21.712-129.456-111.248 59.84c-5.328 2.88-11.248 4.304-17.136 4.304s-11.776-1.424-17.136-4.304l-111.248-59.84 21.696 129.456c1.808 10.816-1.744 21.808-9.6 29.632l-93.504 93.312 127.616 19.008c11.664 1.728 21.712 9.008 26.704 19.424l55.472 115.088 55.472-115.072c5.024-10.4 15.040-17.696 26.704-19.424l127.632-19.008-93.52-93.328z" />
<glyph unicode="&#xe607;" glyph-name="people" d="M490.576 38.592c-3.136 2.048-59.744 39.168-143.984 57.36 30.928 39.136 50.752 91.744 59.184 126.784 11.664 48.544 7.136 143.536-39.504 202.704-27.264 34.576-65.392 52.848-110.304 52.848-44.896 0-83.040-18.288-110.304-52.848-46.624-59.168-51.152-154.16-39.456-202.704 8.432-35.024 28.256-87.648 59.152-126.784-84.208-18.192-140.848-55.312-143.952-57.36-11.392-7.616-16.464-21.744-12.496-34.832 3.952-13.088 16.032-22.064 29.712-22.064h434.704c13.664 0 25.76 8.976 29.712 22.064 4 13.088-1.088 27.232-12.464 34.832zM322.24 115.2l-5.088-6.432c-37.040-42.496-85.296-42.496-122.32 0l-5.104 6.432c-43.216 54.752-64.688 127.168-55.456 196.288 8.48 66.4 46.576 135.776 121.696 135.776 75.152 0 113.2-69.376 121.68-135.776 9.232-69.136-12.144-141.52-55.408-196.288zM38.64 12.752c2.128 1.408 54.752 35.904 133.28 52.864l38.592 8.368c13.744-9.056 28.896-14.688 45.488-14.688 16.624 0 31.712 5.632 45.488 14.688l38.576-8.368c77.952-16.848 130.336-50.944 133.296-52.864h-434.72z" />
<glyph unicode="&#xe608;" glyph-name="search-big" d="M502.048 9.664l-136.336 135.552c28.48 33.92 45.664 77.552 45.664 125.2 0 108-88.080 195.568-196.688 195.568-108.64 0-196.72-87.568-196.72-195.568 0-108.016 88.080-195.568 196.72-195.568 46.528 0 89.232 16.16 122.896 43.008l136.64-135.84 27.824 27.648zM214.672 111.344c-88.368 0-160 71.216-160 159.072 0 87.84 71.632 159.056 160 159.056 88.352 0 160-71.216 160-159.056 0-87.856-71.648-159.072-160-159.072z" />
<glyph unicode="&#xe609;" glyph-name="order" d="M157.408 304.176l196.976 0.176c10.832 0 19.616 8.992 19.616 20.096 0 11.088-8.784 20.080-19.616 20.080l-196.976-0.176c-10.832 0-19.632-8.992-19.632-20.096 0.016-11.104 8.816-20.080 19.632-20.080zM432.56 166.448l-0.16 240.128c-0.928 21.248-17.824 38.192-38.752 38.368l-276.816-0.144c-20.8-0.992-37.408-18.432-37.408-40v-21.344h-0.176l0.128-318.896h0.048v-21.344c0-22.208 17.568-40.192 39.232-40.192h19.616v-0.112l57.936 0.112c10.832 0 19.616 8.976 19.616 20.080s-8.8 20.096-19.632 20.096l-61.936-0.112 23.632 0.592c-31.488 0-39.248 6.080-39.248 40.176l0.272-40.8h-0.272l-0.16 361.568h0.432l-0.256-40.48c0 34.112 7.744 40.176 39.248 40.176l-12.4 0.32 226.352 0.128-17.744-0.448c29.712 0 38.224-5.712 39.072-35.056l0.144-185.28-98.080-0.176c-21.68 0-39.248-17.968-39.248-40.16v-20.096h-0.144l0.128-98.4c-0.624-5.84 0.96-11.888 5.328-16.368 1.952-2 4.224-3.456 6.64-4.432 2.352-1.024 4.944-1.6 7.664-1.6 6.176 0 11.456 3.088 15.040 7.664l133.344 136.88c0.208 0.144 0.336 0.352 0.544 0.512 5.008 3.648 8.512 9.344 8.512 16.112 0 0.896-0.384 1.68-0.496 2.528zM393.152 394.368l-0.064 10.416h0.064v-10.416zM295.152 71.936l-0.032 31.936c0.048 31.872 6.64 39.776 39.824 39.776l-39.616-0.288-0.224-38.096-0.048 38.4 70.080 0.096-69.984-71.824zM157.408 223.808l196.976 0.192c10.832 0 19.616 8.992 19.616 20.080 0 11.104-8.784 20.080-19.616 20.080l-196.976-0.16c-10.832 0-19.632-9.008-19.632-20.096 0.016-11.088 8.816-20.096 19.632-20.096z" />
<glyph unicode="&#xe60a;" glyph-name="opinion" d="M103.072 137.568l-14.88 0.096c4.32-0.080 9.232-0.096 14.88-0.096zM58.576 162.128l-0.128 18.784c0-7.52-0.048-13.664 0.128-18.784zM123.296 245.744l44.8 0.192c12.128 0 21.968 9.696 21.968 21.68 0 11.968-9.84 21.664-21.968 21.664l-44.8-0.192c-12.128 0-21.968-9.712-21.968-21.68s9.824-21.664 21.968-21.664zM497.344 404.448c-3.328 20.64-21.28 36.464-43.104 36.544l-398.288-0.176c-23.28-1.040-41.856-19.792-41.952-42.976l0.176-262.24c1.056-23.008 20.144-41.376 43.744-41.376h23.328v-0.144l64.864 0.128c12.144 0 21.984 9.712 21.984 21.664 0 11.968-9.84 21.68-21.984 21.68l-88-0.16-0.16 233.584c0.736 21.648 5.232 25.776 29.2 26.496l337.088 0.112c-1.2 0.016-2.56 0.032-3.84 0.048l33.008 0.016 0.016-26.832-0.16 26.576-29.024 0.192c25.088-0.56 28.72-4.688 29.184-33.008l0.16-227.008-198.464-0.176c-7.68 0-14.416-3.904-18.352-9.792l-107.36-105.264c-8.592-8.448-8.592-22.176 0-30.64 8.576-8.464 22.496-8.464 31.072 0l104.384 102.336 189.216 0.208c22.528 0 40.912 16.8 43.44 38.352l-0.176 271.856zM58.064 397.376l-0.112-15.92v16h10.416l-10.304-0.080zM387.776 289.28l-44.784-0.192c-12.144 0-21.968-9.712-21.968-21.68s9.824-21.664 21.968-21.664l44.784 0.192c12.144 0 22 9.696 22 21.68 0 11.968-9.856 21.664-22 21.664zM58.576 162.128l0.16-24.272 29.456-0.208c-24.784 0.544-28.944 3.872-29.616 24.48zM277.936 245.936c12.144 0 21.968 9.696 21.968 21.68 0 11.968-9.824 21.664-21.968 21.664l-44.8-0.192c-12.128 0-21.968-9.712-21.968-21.68s9.824-21.664 21.968-21.664l44.8 0.192zM453.456 168.336c0.064 3.744 0.080 7.84 0.080 12.56l-0.080-12.56zM453.456 168.336c-0.416-26.096-3.664-30.096-27.008-30.672l26.816 0.192 0.192 30.48zM409.616 137.568c6.576 0 12.080 0 16.848 0.112l-16.848-0.112z" />
<glyph unicode="&#xe60b;" glyph-name="luck" d="M408.064 320.96l-0.688-0.672c-3.376 2.496-7.408 4.24-12 4.24-11.056 0-20.064-8.672-20.064-19.424l0.192-1.792c0-3.92 1.504-7.36 3.584-10.416l-0.624-0.608c26.816-28.544 43.312-66.352 43.312-107.984 0-88.784-74.352-160.736-166.048-160.736s-166.048 71.952-166.048 160.736c0 88.752 74.352 160.72 166.048 160.72 30.848 0 59.648-8.304 84.384-22.48l5.152 4.992c5.76 1.984 10.224 6.304 12.288 11.888l12.976 12.56c-0.608 0.384-1.28 0.672-1.888 1.056l49.536 80.496c6.4 9.168 3.92 21.632-5.536 27.84-9.488 6.208-22.368 3.824-28.784-5.344l-52.192-84.816c-23.472 8.944-48.896 14.144-75.664 14.144-27.008 0-52.736-5.136-76.4-14.224l-52.224 84.896c-6.4 9.168-19.28 11.552-28.768 5.344-9.472-6.208-11.936-18.672-5.536-27.84l49.712-80.784c-56.864-35.872-94.544-97.872-94.544-168.48 0-111.056 93.008-201.088 207.744-201.088s207.744 90.032 207.744 201.088c0.016 52.848-21.216 100.8-55.664 136.688zM255.52 284.224c-11.44 0-20.704-8.976-20.704-20.032l0.064-160.368c0-11.072 9.264-20.048 20.704-20.048s20.72 8.976 20.72 20.048l-0.080 160.368c0.016 11.072-9.264 20.032-20.704 20.032z" />
<glyph unicode="&#xe60c;" glyph-name="home" d="M494.352 231.984l-228.576 229.392c0 0 0 0 0 0s0 0 0 0l-0.32 0.336c-8.112 8.128-21.232 8.128-29.312 0-0.576-0.576-0.784-1.328-1.28-1.952l-227.328-228.112c-8.080-8.144-8.080-21.344 0-29.504 4.448-4.464 10.384-6.24 16.192-5.792l36.256 0.080c20.816-0.848 24.304-5.216 24.784-27.952l-0.176 27.952-7.024 0.048 7.632 0.016 0.16-168.64c0.992-22.16 19.008-39.84 41.264-39.84h41.44c22.896 0 41.44 18.672 41.44 41.712v22.16h0.128l-0.048 37.040 0.064 2.992c-0.032-0.48-0.032-1.12-0.064-1.632l-0.032 22.656h0.56l-0.448-21.024c1.232 16.528 6.16 20.272 24.144 21.072l32.512 0.064c19.408-0.736 24.704-4.336 26-22.944l-0.496 22.88-12.192 0.080 12.816 0.032 0.048-27.376c-0.064 1.472-0.080 3.072-0.176 4.384l0.176-8.32 0.096-53.84c0.944-22.208 18.992-39.952 41.28-39.952h41.44c22.896 0 41.44 18.672 41.44 41.712v22.16h0.16l-0.144 144.976c0 11.536-9.28 20.848-20.736 20.848-11.44 0-20.72-9.328-20.72-20.848l0.128-127.248-0.080-12.64c0.064 2.912 0.080 6.208 0.096 9.728l0.032-37.024h-0.32l0.192 27.296c-0.448-20.192-3.52-25.568-20.704-27.008-20.528 1.568-20.608 8.592-20.608 41.12l-0.064-7.52-0.048 26.752h-0.064v22.176c0 23.024-18.56 41.696-41.456 41.696h-20.72v0.56l-41.456-0.064v-0.496h-20.704c-22.736 0-41.168-18.432-41.392-41.264l0.080-51.248c-0.128-24.208-1.776-30.352-20.048-31.808-15.152 1.056-20 4.96-21.36 18.944l-0.112 124.944h-0.080v22.16c0 23.040-18.56 41.696-41.44 41.696h-13.008l178.944 179.568 213.936-214.704c8.096-8.144 21.2-8.144 29.312 0 8.080 8.16 8.080 21.344-0.016 29.52zM334 29.648l7.296-0.048-7.296-0.016v0.064zM126.8 29.648l7.328-0.048-7.328-0.016v0.064zM84.768 168.464l0.096-14.768c0 5.648 0 10.512-0.096 14.768z" />
<glyph unicode="&#xe60d;" glyph-name="history" d="M262.512 462.816c-131.904 0-238.848-106.912-238.848-238.816 0-41.6 10.704-80.672 29.392-114.72 2.64-9.008 10.864-15.664 20.736-15.664 12 0 21.712 9.712 21.712 21.68l-0.192 2.048c0 9.072-5.6 16.848-13.536 20.064l3.52 3.536c-11.968 25.312-18.848 53.52-18.848 83.376 0 108.080 87.632 195.728 195.728 195.728 108.112 0 195.744-87.648 195.744-195.728 0-108.128-87.632-195.744-195.744-195.744-43.040 0-82.688 14.096-115.008 37.648-3.968 4.304-9.6 7.024-15.904 7.024-11.984 0-21.712-9.712-21.712-21.728l0.192-2c0-9.984 6.784-18.304 15.952-20.816 38.784-27.248 85.808-43.52 136.8-43.52 131.92 0 238.816 106.896 238.816 238.816 0.016 131.904-106.896 238.816-238.8 238.816zM262.736 375.792c-11.984 0-21.712-9.728-21.712-21.712l-0.192-126.88c-0.16-1.056-0.336-2.128-0.336-3.232 0-3.024 0.624-5.904 1.744-8.528 3.072-8.256 10.96-14.176 20.288-14.176 2.112 0 4.112 0.384 6.048 0.96l124.72-0.16c12 0 21.728 9.728 21.728 21.696 0 12-9.728 21.712-21.728 21.712l-109.024 0.16 0.176 108.432c0 12-9.712 21.728-21.712 21.728z" />
<glyph unicode="&#xe60e;" glyph-name="delete" d="M256-14.672c-131.824 0-238.672 106.864-238.672 238.672s106.848 238.672 238.672 238.672c131.808 0 238.672-106.848 238.672-238.672s-106.864-238.672-238.672-238.672zM396.624 308.368l-56.256 56.272-84.368-84.384-84.384 84.384-56.256-56.272 84.384-84.368-84.384-84.368 56.256-56.256 84.384 84.352 84.368-84.352 56.256 56.256-84.352 84.368 84.352 84.368z" />
<glyph unicode="&#xe60f;" glyph-name="coupons" d="M319.664 287.136c0-11.824 9.456-21.44 21.12-21.44 11.696 0 21.152 9.616 21.152 21.44l-0.176 129.344v0.48h19.712l-19.712-0.48c31.952 0 41.104-6.064 42.080-37.136l0.208-370.128c0-8.48 4.96-15.664 12-19.136 17.44 5.264 30.24 21.456 30.272 40.848l-0.176 388.016c-1.024 22.72-19.36 40.88-41.984 40.944l-298.016-0.192c-22.48-0.976-40.464-19.648-40.464-42.704v-22.784h-0.192l0.16-340.432h0.032v-22.768c0-23.696 18.928-42.912 42.288-42.912h21.136v-0.16l210.464 0.128c11.664 0 21.168 9.632 21.168 21.456 0 11.856-9.504 21.488-21.168 21.488l-217.632-0.192 28.32 0.704c-33.936 0-42.288 6.464-42.288 42.88l0.288-43.6h-0.304l-0.192 386.016h0.464l-0.256-43.216c0 36.432 8.352 42.88 42.288 42.88l-14.32 0.352 183.536 0.096 0.192-129.792zM403.824 416.992v-10.064l-0.064 10.064h0.064z" />
<glyph unicode="&#xe610;" glyph-name="Collection" d="M148.656 352.832c-11.888 0-21.536-9.584-21.536-21.408h-0.672c0-0.128-0.016-0.256-0.016-0.384 0-70.736 57.696-128.096 128.848-128.096 71.184 0 128.832 57.36 128.832 128.096 0 0.128 0.080 0.24 0.080 0.384 0 11.824-9.664 21.408-21.536 21.408-11.888 0-21.552-9.584-21.552-21.408 0-0.416 0.224-0.752 0.24-1.152-0.928-46.448-38.928-83.84-85.84-83.84-46.64 0-84.368 36.96-85.744 83.008 0.064 0.688 0.4 1.296 0.4 2 0.032 11.808-9.616 21.392-21.504 21.392zM471.056 373.568h-0.048v21.424c0 23.6-19.216 42.752-42.976 42.816l-346.608-0.192c-22.8-1.024-41.024-19.552-41.12-42.448l0.192-344.784c0.864-18.624 13.648-34.016 30.992-38.992 7.088 3.52 12.080 10.624 12.080 19.024l-0.176 341.616 0.496-19.872c0 32.464 6.128 41.712 37.616 42.64l264.4 0.144c35.104-0.272 41.536-8.96 41.536-42.784l0.576 22.896 0.128-280.016c-0.016-33.76-6.512-42.384-41.664-42.64l-249.76 0.208c-11.904 0-21.536-10.048-21.536-21.856 0-11.856 9.632-21.44 21.536-21.44l291.936 0.224c22.16 0 40.224 16.72 42.592 38.128l-0.192 325.904zM83.376 394.72v0.080h12.352l-12.352-0.080zM427.984 394.72l-35.936 0.24 35.936 0.016v-0.256zM428.144 52.368l-35.328 0.032 35.328 0.208v-0.24z" />
<glyph unicode="&#xe611;" glyph-name="destination" d="M256.016 382.048c-51.024 0-92.512-41.472-92.512-92.464 0-51.008 41.488-92.48 92.512-92.48 51.008 0 92.512 41.488 92.512 92.48s-41.504 92.464-92.512 92.464zM256.016 212.496c-42.528 0-77.088 34.576-77.088 77.072 0 42.512 34.56 77.040 77.088 77.040s77.104-34.544 77.104-77.040c0-42.496-34.576-77.072-77.104-77.072zM256 470.608c-102.048 0-185.040-81.952-185.040-184.976 0-107.92 92.528-218.272 160-295.824 0.256-0.336 11.088-12.416 24.464-12.416h1.184c13.376 0 24.208 12.096 24.464 12.416 67.472 77.568 159.984 187.904 159.984 295.824-0.016 103.040-83.008 184.976-185.056 184.976zM257.792 10.032c-0.304-0.304-1.264-1.008-2.064-1.52-0.16 0.416-1.312 1.328-2 2.064-56.528 64.992-151.936 174.672-151.936 275.056 0 84.992 69.2 154.144 154.208 154.144 85.040 0 154.224-69.152 154.224-154.144 0-100.384-95.408-210.064-152.432-275.6z" />
<glyph unicode="&#xe612;" glyph-name="choose" d="M256 462.672c-131.616 0-238.672-107.056-238.672-238.672 0-131.6 107.056-238.656 238.672-238.656 131.6 0 238.656 107.056 238.656 238.656 0 131.616-107.056 238.672-238.656 238.672zM256 4.432c-121.072 0-219.568 98.512-219.568 219.568 0 121.072 98.496 219.568 219.568 219.568 121.056 0 219.568-98.496 219.568-219.568 0-121.056-98.512-219.568-219.568-219.568zM357.232 322.336l-136.832-168.336-72.448 70.208c-8.608 8.336-22.336 8.112-30.672-0.48-8.336-8.608-8.128-22.336 0.48-30.688l72.704-70.448c4-3.872 9.104-5.68 14.24-5.904 1.36-3.408 3.28-6.608 6.368-9.040 9.408-7.424 23.056-5.808 30.464 3.6l149.76 184.256c7.408 9.408 5.792 23.056-3.616 30.464-9.376 7.376-23.024 5.76-30.448-3.632z" />
<glyph unicode="&#xe613;" glyph-name="arrow" d="M382.672 256.928c-1.664 1.648-3.488 2.976-5.312 4.336l-181.68 183.968c-18.336 18.336-48.016 18.336-66.352 0-18.32-18.32-18.32-48.032 0-66.352l153.696-155.648-152.128-154.080c-18.336-18.336-18.336-48.032 0-66.368 18.304-18.336 48-18.336 66.336 0l180.16 182.448c1.792 1.36 3.632 2.672 5.264 4.32 9.296 9.28 13.824 21.504 13.68 33.696 0.16 12.16-4.368 24.384-13.664 33.68z" />
<glyph unicode="&#xe614;" glyph-name="plane2" d="M473.584 445.84c-2.336 1.504-4.976 2.24-7.616 2.24-2.72 0-5.408-0.768-7.76-2.352l-419.936-280.096c-4.32-2.848-6.704-7.936-6.16-13.088 0.544-5.184 3.888-9.632 8.72-11.536l109.52-43.872 51.488-90.16c2.48-4.32 7.040-7.008 12-7.056 0.048 0 0.096 0 0.144 0 4.912 0 9.488 2.624 12 6.848l29.072 48.496 135.712-54.32c1.664-0.688 3.424-1.024 5.168-1.024 2.384 0 4.784 0.624 6.88 1.808 3.68 2.096 6.256 5.712 6.96 9.904l69.984 420.16c0.944 5.488-1.504 11.008-6.176 14.048zM75.936 157.088l324.4 216.4-235.856-252.608c-1.248 0.72-2.352 1.744-3.712 2.256l-84.832 33.952zM174.656 111.024c-0.032 0.064-0.064 0.096-0.096 0.16l265.152 283.952-226.048-352.384-39.008 68.272zM385.024 33.408l-119.568 47.808c-2.848 1.152-5.808 1.536-8.736 1.68l184.144 285.568-55.84-335.056z" />
<glyph unicode="&#xe615;" glyph-name="price" d="M483.088 303.936l-147.328 147.6c-7.28 7.312-17.888 10.272-27.904 7.776-5.312-1.296-10-4.016-13.76-7.776-3.328-3.344-5.872-7.504-7.312-12.128-6.672-21.696-18.224-40.544-35.296-57.648-22.8-22.832-52.48-40.128-83.936-58.416-33.328-19.344-67.792-39.408-96.032-67.712-23.984-24.064-40.336-50.832-49.92-81.92-3.216-10.512-0.4-21.872 7.328-29.632l147.328-147.616c7.312-7.328 17.888-10.272 27.92-7.776 5.296 1.344 10.016 4.048 13.76 7.776 3.328 3.36 5.872 7.504 7.312 12.192 6.688 21.664 18.224 40.512 35.312 57.616 22.784 22.848 52.48 40.112 83.952 58.384 33.312 19.408 67.76 39.472 96.016 67.744 24 24.048 40.336 50.864 49.888 81.936 3.2 10.464 0.4 21.872-7.328 29.6zM197.088 17.344c-48.8 48.912-98.528 98.768-147.328 147.632 41.872 135.824 223.328 129.872 265.168 265.68 48.8-48.864 98.544-98.688 147.344-147.616-41.888-135.792-223.328-129.856-265.184-265.696zM308.464 240.24c-4.8 4.032-9.648 6.784-14.512 8.144-4.832 1.344-9.664 1.888-14.544 1.552-4.832-0.384-9.776-1.472-14.736-3.36-4.944-1.936-9.92-4.048-14.928-6.464-7.904 9.104-15.824 18.096-23.728 26.464 3.568 3.232 7.008 4.88 10.352 4.992 3.328 0.144 6.544-0.192 9.6-0.976 3.104-0.784 5.952-1.44 8.576-1.968 2.656-0.512 4.96 0.064 6.976 1.76 2.128 1.84 3.312 4.24 3.488 7.104 0.128 2.928-0.96 5.744-3.376 8.528-3.104 3.552-6.848 5.728-11.328 6.528-4.432 0.768-8.976 0.72-13.696-0.32-4.672-1.072-9.088-2.832-13.296-5.312s-7.568-5.008-10.080-7.488c-0.96 0.928-1.92 1.824-2.88 2.704-1.056 0.992-2.384 1.504-3.968 1.472-1.616 0-2.944-0.688-4.032-1.968-1.056-1.248-1.552-2.672-1.344-4.208 0.144-1.6 0.768-2.8 1.856-3.728 0.976-0.784 1.92-1.616 2.88-2.448-3.76-4.544-6.88-9.6-9.328-14.896-2.48-5.344-3.952-10.624-4.496-15.76-0.576-5.136-0.032-9.872 1.568-14.256 1.584-4.416 4.48-8.16 8.752-11.712 6.928-5.76 15.104-8.192 24.576-7.664 9.44 0.576 19.632 3.408 30.56 9.28 8.704-10.032 17.424-20.048 26.112-29.328-3.68-3.12-6.896-4.912-9.744-5.472-2.848-0.608-5.376-0.544-7.68 0.128-2.304 0.72-4.432 1.744-6.384 3.104-1.952 1.328-3.872 2.496-5.808 3.456-1.904 0.944-3.856 1.456-5.856 1.472-2.016 0.048-4.144-0.944-6.512-2.944-2.4-2.112-3.616-4.576-3.616-7.328s1.264-5.552 3.728-8.352c2.496-2.832 5.76-5.2 9.696-7.056 3.952-1.888 8.368-3.056 13.264-3.376 4.896-0.352 10.032 0.384 15.488 2.4 5.472 2 10.88 5.6 16.192 10.96 2.592-2.512 5.168-4.896 7.712-7.184 1.136-0.96 2.448-1.424 4.048-1.328 1.568 0.064 2.928 0.816 3.968 2.112 1.104 1.328 1.568 2.784 1.376 4.32-0.128 1.552-0.736 2.752-1.824 3.616-2.592 2.080-5.152 4.272-7.76 6.576 4.384 5.392 7.952 11.104 10.56 16.768 2.608 5.68 4.176 11.152 4.704 16.24 0.48 5.104-0.096 9.728-1.76 13.888-1.648 4.208-4.592 7.84-8.816 11.328zM226.112 230.24c-4.176-0.16-7.808 1.2-11.008 4.288-1.344 1.296-2.288 2.88-2.864 4.752-0.608 1.888-0.816 3.92-0.576 6.176 0.192 2.224 0.864 4.528 2.016 6.864 1.088 2.336 2.688 4.672 4.768 6.912 7.456-7.44 14.928-15.6 22.368-24.032-5.6-3.12-10.528-4.8-14.704-4.96zM295.632 200.688c-1.344-2.448-2.864-4.64-4.64-6.544-8.256 8.368-16.512 17.536-24.752 26.944 2.096 0.96 4.336 1.952 6.704 2.96 2.384 1.008 4.768 1.664 7.168 2.080 2.416 0.368 4.848 0.256 7.28-0.32 2.368-0.608 4.64-1.904 6.752-3.952 2.080-2.080 3.392-4.24 3.92-6.576 0.56-2.368 0.576-4.752 0.192-7.2-0.448-2.464-1.28-4.928-2.624-7.392zM237.12 132.784h-0.032c-9.2-7.072-18.192-14.544-26.512-22.896-8-8.048-15.232-16.464-21.52-25.088l-10.064-13.776 0.016-0.032c-1.84-2.896-1.52-6.768 0.992-9.264 2.88-2.896 7.552-2.896 10.448 0 0.432 0.48 0.784 0.96 1.088 1.472l9.408 12.944c5.84 7.968 12.592 15.856 20.048 23.312 8.256 8.288 15.936 14.688 25.232 21.744l-0.016 0.064c0.256 0.192 0.512 0.352 0.752 0.576 2.896 2.896 2.896 7.6 0 10.464-2.688 2.72-6.96 2.816-9.84 0.48zM291.008 346.304c-7.664-7.728-16.048-14.672-24.688-21.296-0.624-0.352-1.232-0.736-1.744-1.28-2.896-2.912-2.896-7.632 0-10.56 2.848-2.848 7.376-2.912 10.32-0.192l0.032-0.032c9.232 7.088 18.208 14.576 26.512 22.912 8.016 8.016 15.232 16.416 21.52 25.056l10.080 13.824-0.048 0.032c2.496 2.944 2.416 7.328-0.368 10.096-2.88 2.928-7.6 2.928-10.464 0-0.56-0.56-0.976-1.184-1.296-1.808l-9.808-13.44c-5.824-8-12.592-15.84-20.048-23.312z" />
<glyph unicode="&#xe616;" glyph-name="down" d="M408.384 167.424c-12.56 12.672-32.928 12.672-45.488 0l-73.968-74.208-0.256 340.992c0 17.904-14.4 32.416-32.16 32.416s-32.16-14.512-32.16-32.416l0.256-342.528-75.504 75.728c-12.544 12.672-32.928 12.672-45.488 0-12.544-12.656-12.544-33.168 0-45.824l124.32-124.704c1.296-2.144 2.784-4.192 4.624-6.048 6.464-6.512 14.992-9.616 23.456-9.424 8.464-0.192 16.992 2.912 23.456 9.424 1.84 1.856 3.328 3.92 4.64 6.080l124.304 124.672c12.528 12.672 12.528 33.184-0.032 45.84z" />
<glyph unicode="&#xe617;" glyph-name="up" d="M408.384 326.384l-124.32 124.688c-1.296 2.144-2.784 4.208-4.624 6.048-6.448 6.528-14.976 9.632-23.44 9.44-8.464 0.192-16.992-2.912-23.44-9.424-1.84-1.856-3.328-3.92-4.64-6.064l-124.304-124.688c-12.56-12.656-12.56-33.168 0-45.824 12.56-12.672 32.928-12.672 45.488 0l73.984 74.208 0.256-340.992c0-17.904 14.4-32.416 32.16-32.416s32.16 14.512 32.16 32.416l-0.272 342.528 75.52-75.744c12.544-12.672 32.928-12.672 45.488 0 12.544 12.656 12.544 33.168-0.016 45.824z" />
<glyph unicode="&#xe619;" glyph-name="arrow-left" d="M129.248 191.056c1.664-1.632 3.488-2.976 5.312-4.32l181.664-183.968c18.336-18.336 48.032-18.336 66.352 0 18.336 18.32 18.336 48.032 0 66.336l-153.696 155.648 152.128 154.064c18.336 18.336 18.336 48.032 0 66.368-18.304 18.336-48 18.336-66.336 0l-180.144-182.416c-1.792-1.376-3.648-2.688-5.264-4.336-9.296-9.248-13.808-21.504-13.68-33.68-0.16-12.16 4.368-24.384 13.664-33.696z" />
<glyph unicode="&#xe61a;" glyph-name="arrow-down" d="M288.896 97.28c1.648 1.664 2.992 3.488 4.336 5.312l183.968 181.664c18.336 18.336 18.336 48.032 0 66.352-18.32 18.336-48.032 18.336-66.336 0l-155.648-153.696-154.096 152.128c-18.336 18.336-48.032 18.336-66.368 0-18.336-18.304-18.336-48 0-66.336l182.432-180.16c1.376-1.792 2.688-3.648 4.336-5.264 9.248-9.296 21.504-13.808 33.68-13.68 12.176-0.144 24.4 4.384 33.696 13.68z" />
<glyph unicode="&#xe61b;" glyph-name="arrow-up" d="M223.040 350.704c-1.648-1.664-2.976-3.488-4.336-5.312l-183.968-181.68c-18.336-18.336-18.336-48.032 0-66.352 18.32-18.336 48.032-18.336 66.352 0l155.648 153.696 154.064-152.128c18.336-18.336 48.032-18.336 66.368 0 18.336 18.304 18.336 48 0 66.336l-182.416 180.16c-1.376 1.792-2.688 3.648-4.336 5.264-9.248 9.296-21.504 13.808-33.68 13.68-12.16 0.16-24.4-4.368-33.696-13.664z" />
<glyph unicode="&#xe61c;" glyph-name="password2" d="M256 464c-91.184 0-165.088-73.872-165.088-164.992 0-5.104 0.72-10.016 1.168-15.008h-1.168v-135.008c0-91.12 73.904-164.992 165.088-164.992 86.112 0 156.736 65.904 164.336 149.984h0.768v165.024c-0.016 91.12-73.92 164.992-165.104 164.992zM256 13.984c-74.608 0-135.072 60.448-135.072 135.008s60.464 135.008 135.072 135.008c74.608 0 135.072-60.432 135.072-135.008s-60.464-135.008-135.072-135.008zM391.072 243.68c-29.856 42.48-79.168 70.32-135.072 70.32s-105.216-27.84-135.072-70.32v55.312c0 74.56 60.48 135.008 135.072 135.008 74.608 0 135.072-60.432 135.072-135.008v-55.312zM256 208.992c-33.152 0-60.032-26.864-60.032-60 0-27.92 19.168-51.184 45.008-57.888v-17.12c0-8.288 6.736-15.008 15.008-15.008s15.008 6.72 15.008 15.008v17.12c25.84 6.704 45.008 29.968 45.008 57.888 0.032 33.152-26.848 60-60 60zM256 118.992c-16.576 0-30.016 13.44-30.016 30.016 0 16.56 13.44 30 30.016 30s30.016-13.44 30.016-30c0-16.592-13.44-30.016-30.016-30.016z" />
<glyph unicode="&#xe61d;" glyph-name="zoomout" d="M422.384 104.448l-70.144 71.040c13.856 22.48 22.24 48.704 22.24 77.056 0 81.392-65.936 147.408-147.28 147.408-81.328 0-147.264-66-147.264-147.408s65.936-147.392 147.264-147.392c28.336 0 54.528 8.384 76.992 22.256l71.424-69.68c12.928-12.912 33.856-12.912 46.784 0 12.896 12.896 12.896 33.824-0.016 46.72zM303.92 223.872h-48v-48h-48v48h-48v48h48v48h48v-48h48v-48z" />
<glyph unicode="&#xe61e;" glyph-name="more" d="M129.648 304.032c14.768 0 242.080 0 252.288 0 13.216 0 23.024-7.76 15.312-15.424-6.192-6.144-115.168-129.008-125.856-139.504-7.008-6.88-23.76-6.768-30.8 0-7.84 7.568-117.44 130.896-126.176 139.824-6.416 6.528 0.656 15.104 15.232 15.104z" />
<glyph unicode="&#xe61f;" glyph-name="more1" d="M382.352 143.984c-14.768 0-242.064 0-252.272 0-13.216 0-23.024 7.76-15.312 15.424 6.192 6.16 115.168 129.008 125.856 139.504 7.008 6.88 23.76 6.768 30.8 0 7.84-7.568 117.44-130.88 126.176-139.824 6.4-6.528-0.672-15.104-15.248-15.104z" />
<glyph unicode="&#xe620;" glyph-name="book" d="M415.232 99.936h-110.096l-49.136-45.264-49.152 45.264h-110.096c-20.304 0-36.752 15.152-36.752 33.856v225.68c0 18.704 16.448 33.856 36.752 33.856h318.48c20.32 0 36.768-15.152 36.768-33.856v-225.68c0-18.704-16.448-33.856-36.768-33.856zM427.488 348.192c0 12.464-10.976 22.56-24.496 22.56h-294c-13.536 0-24.496-10.096-24.496-22.56v-203.12c0-12.464 10.976-22.576 24.496-22.576h110.096l36.912-34 36.896 34h110.096c13.536 0 24.496 10.112 24.496 22.576v203.12zM366.24 280.496h-220.496c-6.768 0-12.256 5.040-12.256 11.28s5.488 11.28 12.256 11.28h220.48c6.784 0 12.256-5.056 12.256-11.28s-5.472-11.28-12.24-11.28zM194.752 235.344h122.496c6.768 0 12.256-5.040 12.256-11.28s-5.488-11.296-12.256-11.296h-122.496c-6.768 0-12.256 5.056-12.256 11.296s5.488 11.28 12.256 11.28z" />
<glyph unicode="&#xe621;" glyph-name="chart" d="M420.976 384.768h-53.632v24.736c0 6.832-5.536 12.368-12.352 12.368-6.848 0-12.368-5.536-12.368-12.368v-24.72h-74.24v24.72c0 6.832-5.536 12.368-12.368 12.368s-12.368-5.536-12.368-12.368v-24.72h-74.24v24.72c0 6.832-5.536 12.368-12.384 12.368-6.832 0-12.368-5.536-12.368-12.368v-24.72h-53.632c-18.224 0-32.992-14.752-32.992-32.992v-292.672c0-18.224 14.768-32.992 32.992-32.992h329.936c18.224 0 32.992 14.784 32.992 32.992v292.672c0.016 18.224-14.768 32.976-32.976 32.976zM429.216 59.12c0-4.56-3.68-8.256-8.256-8.256h-329.936c-4.544 0-8.24 3.68-8.24 8.256v292.672c0 4.56 3.696 8.256 8.24 8.256h53.616v-24.736c0-6.832 5.536-12.352 12.368-12.352 6.848 0 12.384 5.536 12.384 12.352v24.72h74.24v-24.736c0-6.832 5.536-12.352 12.368-12.352s12.368 5.536 12.368 12.352v24.736h74.24v-24.736c0-6.832 5.536-12.352 12.368-12.352s12.352 5.536 12.352 12.352v24.736h53.632c4.56 0 8.256-3.696 8.256-8.256v-292.656zM144.656 236.352h49.488v37.104h-49.488v-37.104zM144.656 174.528h49.488v37.088h-49.488v-37.088zM144.656 112.688h49.488v37.12h-49.488v-37.12zM231.264 112.688h49.488v37.12h-49.488v-37.12zM231.264 174.528h49.488v37.088h-49.488v-37.088zM231.264 236.352h49.488v37.104h-49.488v-37.104zM317.856 112.688h49.488v37.12h-49.488v-37.12zM317.856 174.528h49.488v37.088h-49.488v-37.088zM317.856 236.352h49.488v37.104h-49.488v-37.104z" />
<glyph unicode="&#xe622;" glyph-name="group" d="M459.344 32c-10.176 0-18.416 8.576-18.416 19.152l-0.192 1.792c0 0.192 0.096 0.368 0.128 0.576-0.784 52.816-30.768 98.176-73.952 119.44-1.664 2.432-3.664 4.544-5.392 6.896-1.808-0.384-3.664-0.672-5.616-0.672-14.128 0-25.6 11.92-25.6 26.64l-0.24 2.464c0 1.824 0.192 3.6 0.512 5.296-0.432 0.352-0.8 0.832-1.2 1.184l2.24 2.336c2.592 7.584 8.288 13.52 15.6 16.208l1.872 1.968c21.52 13.36 36.048 37.504 36.048 65.456 0 35.696-23.536 65.456-55.264 74.080-0.704 1.328-1.616 2.528-2.352 3.84-2.32-1.184-4.832-1.984-7.6-1.984-9.648 0-17.52 8.144-17.52 18.208l-0.144 1.696c0 9.728 7.392 17.52 16.608 18.032l0.928 0.944c57.488-4.384 102.864-54.176 102.864-115.088 0-36.384-16.32-68.688-41.6-89.872 0.064-0.752 0.24-1.504 0.24-2.32 56.144-27.184 95.28-85.888 96.096-154.352 0.016-0.336 0.192-0.656 0.192-0.992l0.192-1.792c-0.016-10.56-8.256-19.136-18.432-19.136zM268.96 209.2c57.12-26.784 97.056-86.080 97.888-155.264 0.016-0.336 0.208-0.656 0.208-0.992l0.176-1.792c0-10.576-8.272-19.152-18.432-19.152s-18.432 8.576-18.432 19.152l-0.176 1.792c0 0.288 0.16 0.496 0.176 0.784-1.12 69.584-52.944 126.224-118.752 131.776-3.472-0.352-7.008-0.56-10.576-0.56s-7.088 0.208-10.576 0.56c-66.512-5.632-118.848-63.44-118.848-134.064 0-0.032 0-0.048 0-0.064h-0.384l0.016-0.24c0-10.56-8.24-19.136-18.416-19.136-10.192 0-18.432 8.576-18.432 19.152l-0.16 1.808c0 0.976 0.4 1.808 0.544 2.768 1.488 68.544 41.328 127.12 98.112 153.632-26.112 21.136-42.976 54.032-42.976 91.12 0 63.808 49.744 115.52 111.088 115.52s111.088-51.712 111.088-115.52c0.016-37.168-16.928-70.144-43.136-91.28zM200.704 377.6c-40.816 0-73.904-34.416-73.904-76.864s33.088-76.848 73.904-76.848c40.8 0 73.904 34.4 73.904 76.848s-33.104 76.864-73.904 76.864z" />
<glyph unicode="&#xe623;" glyph-name="slip" d="M34.384 413.968v-25.328l227.936-164.64-240.608-164.624v-25.344l278.608 189.968-265.936 189.968zM224.336 413.968v-25.328l227.968-164.64-240.624-164.624v-25.344l278.608 189.968-265.952 189.968z" />
<glyph unicode="&#xe624;" glyph-name="preferential" d="M428.672 26.672h-345.344c-13.632 0-24.672 11.040-24.672 24.656v333.12h0.56c2.736 20.8 19.456 36.88 39.888 36.88h239.648c22.336 0 40.448-19.12 40.448-42.736v-25.664c0-1.92-0.32-3.744-0.528-5.616h0.528v-12.336h49.472c13.632 0 24.672-11.040 24.672-24.672v-259.008c0-13.584-11.040-24.624-24.672-24.624zM354.672 384.336c0 6.816-5.536 12.336-12.336 12.336h-246.672c-6.816 0-12.336-5.536-12.336-12.336v-49.216h271.344v49.216zM428.672 298c0 6.816-5.536 12.336-12.336 12.336h-320.672c-6.816 0-12.336-5.52-12.336-12.336v-234.336c0-6.832 5.52-12.336 12.336-12.336h320.672c6.816 0 12.336 5.52 12.336 12.336v234.336zM366.816 150.192c-20.432 0-37.008 16.576-37.008 36.992 0 20.432 16.576 36.992 37.008 36.992 20.416 0 36.992-16.544 36.992-36.992 0-20.416-16.576-36.992-36.992-36.992zM379.328 199.328h-24.656v-24.656h24.656v24.656z" />
<glyph unicode="&#xe625;" glyph-name="questions" d="M242.672 330.352c-22.096 0-40-16.832-40-37.6s17.92-37.6 40-37.6c22.080 0 40 16.832 40 37.6s-17.92 37.6-40 37.6zM242.672 280.224c-7.36 0-13.328 5.632-13.328 12.544 0 6.928 5.968 12.528 13.328 12.528s13.328-5.616 13.328-12.528c0-6.912-5.968-12.544-13.328-12.544zM349.344 330.352c-22.096 0-40-16.832-40-37.6s17.904-37.6 40-37.6c22.112 0 40.016 16.832 40.016 37.6s-17.904 37.6-40.016 37.6zM349.344 280.224c-7.36 0-13.328 5.632-13.328 12.544 0 6.928 5.968 12.528 13.328 12.528 7.376 0 13.344-5.616 13.344-12.528s-5.968-12.544-13.344-12.544zM469.376 342.896c0 41.536-35.808 75.2-80.016 75.2h-186.704c-44.192 0-80.016-33.664-80.016-75.2v-50.128c-44.192 0-80.016-33.504-80.016-74.848v-49.568c0-0.016 0-0.016 0-0.016 0-4.272 0.144-124.832 0.16-125.072-0.72-4.88 1.248-8.736 6.096-11.344 6.368-3.456 12.256-2.576 18.64 3.408l82.736 58.192h79.072c43.856 0 79.376 33.024 79.92 73.92h52.496l82.752-58.448c6.368-6.016 12.256-6.912 18.624-3.424 4.848 2.624 6.832 6.48 6.096 11.392 0.016 0.272 0.16 121.392 0.16 125.664v100.272zM229.328 118.464h-75.504c0.016-0.208 0.032-0.368 0.048-0.544-6.048 2.144-13.024 0.176-16.368-5.28l-68.224-49.584v154.864c0 27.552 23.888 49.904 53.344 49.904v-25.2c0-41.536 35.824-75.184 80.016-75.184h79.92c-0.528-27.12-24.112-48.976-53.232-48.976zM442.704 136.848l-68.224 49.792c-3.344 5.488-10.32 7.472-16.352 5.312 0.016 0.192 0.032 0.352 0.064 0.544h-155.536c-29.456 0-53.344 22.448-53.344 50.128v100.272c0 27.68 23.888 50.144 53.344 50.144h186.704c29.456 0 53.344-22.448 53.344-50.144v-206.048z" />
<glyph unicode="&#xe626;" glyph-name="shopping" d="M432.256 106.496h-70.496v-70.496h-199.76v70.496h-82.256c-6.496 0-11.744 5.28-11.744 11.744v211.504c0 6.496 5.264 11.744 11.744 11.744h82.256v70.512h199.744v-70.496h70.496c6.496 0 11.744-5.264 11.744-11.744v-211.504c0.016-6.48-5.232-11.76-11.728-11.76zM185.504 59.52h152.752v117.488h-152.752v-117.488zM338.256 388.512h-152.752v-47.008h152.752v47.008zM420.496 306.256c0 6.496-5.248 11.744-11.744 11.744h-305.504c-6.496 0-11.744-5.264-11.744-11.744v-164.48c0-6.512 5.264-11.76 11.744-11.76h58.752v70.496h199.744v-70.496h47.008c6.496 0 11.744 5.248 11.744 11.76v164.48zM179.632 247.504c-9.728 0-17.632 7.888-17.632 17.648 0 9.728 7.888 17.616 17.632 17.616 9.728 0 17.632-7.872 17.632-17.616-0.016-9.76-7.92-17.648-17.632-17.648zM120.88 247.504c-9.728 0-17.632 7.888-17.632 17.648 0 9.728 7.888 17.616 17.632 17.616 9.728 0 17.632-7.872 17.632-17.616-0.016-9.76-7.904-17.648-17.632-17.648z" />
<glyph unicode="&#xe627;" glyph-name="traffic" d="M412 215.328c0 86.16-69.84 156-156 156s-156-69.84-156-156h-34.672c0 105.312 85.36 190.672 190.672 190.672 105.296 0 190.672-85.36 190.672-190.672h-34.672zM251.2 145.52l40.72 160.816c2.416 9.552 11.68 15.2 20.72 12.64 9.008-2.544 14.352-12.352 11.952-21.904l-40.384-159.504c14.288-9.232 23.792-25.264 23.792-43.568 0-28.704-23.28-52-52-52s-52 23.296-52 52c0 27.072 20.768 49.056 47.2 51.52zM238.656 76.672h34.672v34.656h-34.672v-34.656z" />
<glyph unicode="&#xe628;" glyph-name="trip" d="M256 18.656c0 0-149.328 171.632-149.328 256.688 0 85.040 66.864 154 149.328 154s149.344-68.96 149.344-154c0-85.056-149.344-256.688-149.344-256.688zM256 403.68c-68.736 0-124.448-58.176-124.448-129.936 0-71.776 124.448-216.56 124.448-216.56s124.432 144.784 124.432 216.56c0 71.76-55.696 129.936-124.432 129.936zM256 224c-34.352 0-62.224 28.72-62.224 64.176 0 35.44 27.872 64.16 62.224 64.16s62.224-28.72 62.224-64.16c0-35.44-27.872-64.176-62.224-64.176zM256 326.672c-20.624 0-37.328-17.248-37.328-38.496 0-21.28 16.72-38.512 37.328-38.512 20.624 0 37.344 17.232 37.344 38.512 0 21.248-16.72 38.496-37.344 38.496z" />
<glyph unicode="&#xe629;" glyph-name="route" d="M256 464c-132.56 0-240-107.44-240-240 0-132.576 107.456-240 240-240 132.56 0 240 107.44 240 240s-107.44 240-240 240zM280.336 188.432v-83.968l32.624-32.496v-33.312l-56.624 18.816-55.792-18.912 0.24 35.056 30.56 29.84 0.256 84.976-159.952-54.976 0.352 43.984 160.096 101.008 0.256 107.008c0 13.248 10.736 24 24 24 13.248 0 24-10.752 24-24v-108l160-100v-42.976l-160.016 53.952z" />
<glyph unicode="&#xe62a;" glyph-name="bus" d="M258.064 442.96h-4.128c0.688 0 1.376-0.016 2.064-0.032 0.688 0.016 1.376 0.032 2.064 0.032zM399.808 324.064c-4.304 20.624-18.064 28.864-38.704 37.12-20.336 8.112-69.12 17.84-105.104 18.128-35.984-0.272-84.768-10-105.104-18.112-20.64-8.272-34.4-16.496-38.704-37.12l-15.488-114.288v-157.456h26.656v-24.704c0-30.112 45.968-30.112 45.968 0v24.704h173.344v-24.704c0-30.112 45.968-30.112 45.968 0v24.704h26.656v157.456l-15.488 114.272zM190.448 350.448h131.088c12.896 0 12.896-18.544 0-18.544h-131.088c-12.896 0.016-12.896 18.544 0 18.544zM146.368 101.68c-12.176 0-22.048 9.456-22.048 21.136 0 11.664 9.872 21.12 22.048 21.12s22.032-9.456 22.032-21.12c0-11.68-9.856-21.136-22.032-21.136zM137.504 197.728c-11.456 0-13.856 7.888-12.72 15.84l12.048 82.864c1.664 10.080 5.216 16.72 18.848 16.72h200.64c13.648 0 17.2-6.64 18.864-16.72l12.048-82.864c1.12-7.952-1.28-15.84-12.72-15.84h-237.008zM365.632 101.68c-12.16 0-22.048 9.456-22.048 21.136 0 11.664 9.888 21.12 22.048 21.12 12.176 0 22.064-9.456 22.064-21.12-0.016-11.68-9.904-21.136-22.064-21.136z" />
<glyph unicode="&#xe62b;" glyph-name="feature" d="M58.848 322.576h39.44v39.424h-39.44v-39.424zM137.712 362v-39.424h315.44v39.424h-315.44zM58.848 204.304h39.44v39.408h-39.44v-39.408zM137.712 204.304h315.44v39.408h-315.44v-39.408zM58.848 86h39.44v39.424h-39.44v-39.424zM137.712 86h315.44v39.424h-315.44v-39.424z" />
<glyph unicode="&#xe62c;" glyph-name="add" d="M256 480c-140.8 0-256-115.2-256-256s115.2-256 256-256c140.8 0 256 115.2 256 256s-115.2 256-256 256zM396.8 209.067h-125.867v-125.866h-27.733v125.866h-128v29.867h128v125.867h27.733v-125.867h125.866v-29.867z" />
<glyph unicode="&#xe62d;" glyph-name="love" d="M446.528 362.096c-52.416 49.328-136.192 50.352-190.528 3.968-54.304 46.384-138.080 45.36-190.528-3.968-54.032-50.8-54.032-133.136 0-183.952 15.456-14.528 159.648-150.096 159.648-150.096 17.056-16.048 44.72-16.048 61.792 0 0 0 157.872 148.416 159.632 150.096 54.016 50.816 54.016 133.152-0.016 183.952zM425.936 197.472l-159.648-150.080c-5.664-5.328-14.928-5.328-20.56 0l-159.648 150.080c-42.608 40.048-42.608 105.248 0 145.28 41.072 38.624 107.104 39.984 150.336 3.040l19.584-16.72 19.6 16.72c43.248 36.944 109.28 35.584 150.336-3.040 42.592-40.048 42.592-105.232 0-145.28zM158.544 331.408c-0.016 0-0.016 0-0.064 0-33.856 0-61.312-26.096-61.312-58.272 0-3.76 3.232-6.848 7.216-6.848s7.216 3.088 7.216 6.848v0.016c0 24.592 21.024 44.56 46.928 44.56h0.016c4 0 7.232 3.072 7.232 6.848-0.016 3.792-3.232 6.848-7.232 6.848z" />
<glyph unicode="&#xe62e;" glyph-name="star" d="M351.552 172.624l137.696 102.768h-174.688l-57.52 172.608-59.616-172.608h-174.672l137.68-102.768-55.488-170.56 150.016 108.928 154.144-110.992-57.552 172.624z" />
<glyph unicode="&#xe62f;" glyph-name="place2" d="M167.744 252.432c0-41.424 33.984-74.992 75.888-74.992s75.904 33.568 75.904 74.992-33.984 74.992-75.904 74.992-75.888-33.568-75.888-74.992zM280.784 252.704c0-20.416-16.752-36.992-37.424-36.992s-37.44 16.56-37.44 36.992c0 20.432 16.768 36.992 37.44 36.992s37.424-16.56 37.424-36.992zM410.736 337.168c-1.104 9.552-9.216 16.88-19.088 16.56-10.368-0.336-18.512-8.944-18.16-19.184l0.24-1.712c0.176-5.264 2.608-9.888 6.288-13.152l-0.976-1.024c10.112-20 15.936-42.48 15.936-66.352 0-37.104-13.92-70.864-36.672-96.896-1.328-0.784-2.736-1.424-3.888-2.56l-15.872-16.416c-0.416-0.336-0.8-0.736-1.232-1.072l-62.736-64.64c0.208 0.032 0.384 0.096 0.592 0.128l-31.52-32.624-31.536 32.624c0.064-0.016 0.128-0.032 0.192-0.048l-62.768 65.968c-2.976 2.384-5.728 5.008-8.512 7.616l-8.192 8.48c-0.096 0.112-0.24 0.128-0.352 0.24-23.968 26.336-38.72 61.008-38.72 99.216 0 82.192 67.424 148.816 150.608 148.816 28.752 0 55.52-8.096 78.352-21.92l0.544 0.576c3.568-4.56 8.96-7.648 15.232-7.424 10.368 0.336 18.496 8.928 18.16 19.168l-0.224 1.728c-0.208 5.696-3.12 10.528-7.344 13.792l0.016 0.016c-30.048 20.176-66.32 31.984-105.376 31.984-103.696 0-187.776-83.072-187.776-185.536 0-47.552 18.224-90.768 48-123.552 0.736-1.152 1.264-2.384 2.288-3.392l123.152-127.408c0.32-0.352 0.432-0.816 0.768-1.152 1.84-1.808 3.968-3.168 6.224-4.080 6.976-3.264 15.488-2.208 21.264 3.504 1.472 1.456 2.432 3.184 3.328 4.944l120.032 124.208c0.784 0.784 1.152 1.76 1.776 2.64 30.192 32.864 48.704 76.368 48.704 124.304 0 30.192-7.776 58.448-20.752 83.632z" />
<glyph unicode="&#xe630;" glyph-name="choice" d="M360.88 416h-209.76c-48.112 0-87.12-40.288-87.12-89.968v-204.064c0-49.68 39.008-89.968 87.12-89.968h209.744c48.112 0 87.136 40.288 87.136 89.968v204.064c0 49.68-39.008 89.968-87.12 89.968zM425.408 134.496c0-43.712-34.4-79.2-76.88-79.2h-185.056c-42.448 0-76.864 35.488-76.864 79.2v179.712c0 43.728 34.416 79.2 76.864 79.2h185.056c42.464 0 76.88-35.472 76.88-79.2v-179.712zM381.28 307.376c-10.992 8.176-26.144 5.456-33.888-6.080l-96.336-138.208-69.6 51.888c-10.976 8.192-26.144 5.472-33.904-6.096-7.76-11.504-5.168-27.488 5.792-35.664l89.28-66.56c10.96-8.16 26.128-5.456 33.888 6.096 1.104 1.632 1.52 3.488 2.208 5.28 1.792 1.456 3.44 3.12 4.832 5.152l103.52 148.528c7.744 11.536 5.168 27.504-5.792 35.664z" />
<glyph unicode="&#xe631;" glyph-name="collect" d="M477.488 280.784c-3.84 11.504-13.76 19.92-25.68 21.744l-116.144 17.824-50.48 108.208c-5.312 11.36-16.672 18.624-29.184 18.624-12.48 0-23.856-7.264-29.168-18.624l-50.48-108.208-116.144-17.824c-11.92-1.824-21.84-10.256-25.68-21.744-3.84-11.536-0.944-24.224 7.488-32.912l85.104-87.728-19.76-121.696c-2-12.24 3.152-24.544 13.232-31.728 5.536-3.904 12.064-5.904 18.56-5.904 5.344 0 10.72 1.36 15.6 4.048l101.232 56.272 101.264-56.272c4.88-2.688 10.24-4.048 15.584-4.048 6.528 0 13.008 2 18.576 5.904 10.064 7.184 15.216 19.504 13.216 31.728l-19.744 121.68 85.12 87.728c8.416 8.704 11.312 21.392 7.488 32.928z" />
<glyph unicode="&#xe632;" glyph-name="coupon" d="M294.4 234.971h-62.172c-14.629-18.286-31.085-32.914-47.543-45.714 12.8 0 25.6-1.829 34.743-1.829h113.371c-12.8 9.143-25.6 25.6-38.4 47.543zM475.428 480h-438.857c-20.114 0-36.572-16.457-36.572-36.572v-438.857c0-20.115 16.457-36.571 36.572-36.571h438.857c20.115 0 36.572 16.457 36.572 36.572v438.857c0 20.115-16.457 36.572-36.572 36.572zM336.457 377.6c5.486-3.657 14.628-9.143 25.6-16.457-5.486-3.657-10.971-10.971-16.457-18.286s-12.8-16.457-21.943-27.428c-7.315 5.486-14.628 10.971-21.943 14.628 20.115 21.943 32.914 38.4 34.743 47.543zM173.714 372.115c10.971-14.629 21.943-29.257 31.085-42.057-10.971-3.657-18.285-7.315-23.772-12.8-5.486 9.143-14.629 21.943-31.085 40.228 9.143 3.657 16.457 9.143 23.772 14.629zM398.628 152.685c-20.115 5.486-38.4 14.628-58.514 29.257-1.829-43.885-3.657-71.315-3.657-82.286s-5.486-16.457-14.628-20.115c-9.143-3.657-21.943-5.486-42.057-7.315-1.829 10.971-5.486 21.943-12.8 32.914 16.457-1.829 27.428-1.829 34.743 0 7.315 3.657 9.143 23.772 9.143 62.171h-58.514c-5.486-29.257-18.286-49.372-36.572-64s-38.4-25.6-60.343-32.914c-5.486 9.143-12.8 18.286-23.772 25.6 32.915 7.315 56.685 18.286 71.315 31.086 12.8 12.8 20.114 25.6 21.943 42.057-21.943 0-40.228 0-51.2-1.829v16.457c-14.629-9.143-31.085-18.286-51.2-27.428-3.657 9.143-9.143 18.286-16.457 27.428 21.943 3.657 40.228 10.971 58.514 21.943 16.457 9.143 29.257 20.114 36.571 29.257h-40.228c-16.457 0-32.915 0-49.371-1.828v23.772c16.457 0 32.915-1.829 51.2-1.829h51.2c5.486 9.143 10.971 20.114 12.8 32.915h-43.886c-18.285 0-34.743 0-51.2-1.829v25.6c16.457 0 32.915-1.828 51.2-1.828h49.371c3.657 29.257 7.315 53.029 7.315 71.315 9.143-1.829 20.114-3.657 32.915-5.486-3.657-3.657-5.486-12.8-7.315-27.429-1.829-12.8-3.657-27.428-7.315-40.228h76.8c16.457 0 32.914 0 47.543 1.828v-23.772c-14.628 0-31.086 1.829-47.543 1.829h-82.286c-1.828-10.971-5.486-21.943-10.971-32.915h111.543c14.628 0 31.086 0 47.543 1.829v-23.772c-16.457 0-32.914 1.828-47.543 1.828h-27.428c9.143-16.457 21.943-29.257 38.4-36.572 14.628-7.315 32.914-12.8 53.029-18.286-9.143-7.315-14.628-16.457-18.286-27.428z" />
<glyph unicode="&#xe633;" glyph-name="no-choice" d="M360.864 416h-209.744c-48.112 0-87.12-40.288-87.12-89.968v-204.064c0-49.664 39.008-89.968 87.12-89.968h209.744c48.128 0 87.12 40.32 87.12 89.968v204.064c0.032 49.68-38.992 89.968-87.12 89.968zM425.408 134.528c0-43.712-34.4-79.184-76.88-79.184h-185.072c-42.448 0-76.88 35.456-76.88 79.184v179.68c0 43.728 34.432 79.216 76.88 79.216h185.072c42.448 0 76.864-35.456 76.864-79.216l0.016-179.68z" />
<glyph unicode="&#xe634;" glyph-name="telephone" d="M363.424 186.336c-34.288 0-63.92-19.648-78.48-48.256-44.608 22.656-80.128 60.608-99.456 107.088 32.496 12.976 55.488 44.688 55.488 81.84 0 48.672-39.44 88.128-88.080 88.128-42.4 0-77.792-30-86.16-69.952h-0.88c-0.16-2.64-0.224-5.296-0.4-7.92-0.384-3.344-0.64-6.752-0.64-10.24 0-3.2 0.192-6.352 0.528-9.472 4.336-156.976 122.768-284.832 275.312-304.416 7.28-1.936 14.912-3.072 22.784-3.072 7.568 0 14.88 1.056 21.872 2.864 0.192 0.048 0.336 0.096 0.528 0.144 4.048 1.056 8.016 2.32 11.808 3.904l-2.496 2.512c0.368 0.496 0.928 0.816 1.248 1.36 5.056 8.288 2.432 19.088-5.84 24.128l-1.472 0.72c-6.16 3.76-13.696 3.232-19.248-0.672l-0.752 0.752c-1.776-0.192-3.536-0.544-5.376-0.544-5.088 0-9.92 0.96-14.592 2.32-45.792 5.12-76.256 18.992-87.2 24.816-63.472 29.984-114 82.752-140.56 148.096-4.288 8.96-20.064 45.728-20.464 101.856h0.048c-0.096 1.232-0.384 2.432-0.384 3.712 0 29.168 23.616 52.8 52.768 52.8 29.136 0 52.768-23.632 52.768-52.8 0-26.304-19.28-47.968-44.432-51.984l0.032-0.384c-8.992-0.768-16.112-8.096-16.112-17.264l0.16-1.632c0-5.312 2.48-9.92 6.208-13.136l-1.92-2.592c0.224-0.016 0.448-0.064 0.672-0.064 22.528-59.776 67.632-108.416 124.896-135.632 0-0.192-0.016-0.384-0.032-0.576l0.064 0.080 4.064 1.824c1.408-2.288 3.168-4.336 5.632-5.824l1.472-0.72c8.288-5.040 19.056-2.416 24.128 5.856 1.488 2.448 2.112 5.12 2.32 7.808 6.128 22.304 26.288 38.768 50.48 38.768 29.056 0 52.624-23.6 52.624-52.672 0-5.808-1.152-11.312-2.912-16.544l0.976-0.944c-0.224-0.32-0.56-0.496-0.784-0.832-4.752-7.776-2.288-17.92 5.504-22.672l1.376-0.672c5.744-3.488 12.752-3.008 17.936 0.56l1.744-1.728c7.184 12.752 11.312 27.456 11.312 43.12-0.016 48.72-39.456 88.16-88.080 88.16z" />
<glyph unicode="&#xe635;" glyph-name="plane" d="M256.352 416c13.824 0 24.992-10.672 24.992-23.824v-123.072l166.656-99.264v-42.688l-166.64 53.616v-83.36l33.984-32.272-0.032-33.072-58.96 18.672-58.112-18.736 0.24 34.768 31.84 29.632 0.272 84.368-166.592-54.592 0.352 43.664 166.752 100.256 0.272 122.080c-0.016 13.152 11.184 23.84 24.976 23.824z" />
<glyph unicode="&#xe636;" glyph-name="ship" d="M419.488 209.392h-30.256v-15.232h-30.32v15.232h-30.016v-15.232h-30.56v15.232h-30.048v15.2h181.52v-30.432h-30.32v15.232zM351.568 254.528v-14.992h37.792v30.192h-287.568v-30.192h37.776v14.992h30.272v-14.992h30.32v14.992h30.256v-14.992h30.080v14.992h30.256v-14.992h30.56v14.992h30.256zM313.472 300.128h-30.016v-15.232h-30.32v15.232h-22.688v-15.232h-30.32v15.232h-22.72v14.96h166.624v-30.192h-30.56v15.232zM177.136 368.144v-37.712h38.272v37.712h-38.272zM147.104 315.104h30.32v-30.208h-30.32v30.208zM146.896 224.592h121.392v-30.432h-30.32v15.232h-30.256v-15.232h-30.32v15.232h-30.496v-15.232h-29.84v15.232h-30.304v15.2h60.144zM56.224 224.592h30.56v-30.432h-30.56v30.432zM425.888 80.864h-366.112l-56.32 98.128h506.928l-84.496-98.128zM411.808 149.072h-30.048v-38.032h30.048v38.032z" />
<glyph unicode="&#xe637;" glyph-name="train" d="M377.264 261.184c0-10.768-9.584-19.472-21.424-19.472s-21.424 8.72-21.424 19.472c0 10.768 9.584 19.472 21.424 19.472 11.84 0.016 21.424-8.704 21.424-19.472zM377.264 319.616h-107.12v97.376h107.12v-97.376zM312.992 446.192c0-5.536-4.8-10-10.704-10h-85.84c-6 0-10.864 4.416-10.864 9.872 0 5.44 4.864 9.888 10.864 9.888 0.064 0 0.096-0.016 0.144-0.016v0.272h85.696c5.92 0 10.704-4.48 10.704-10.016zM248.736 319.616h-107.12v97.376h107.12v-97.376zM138.464 261.184c0 10.768 9.584 19.472 21.424 19.472s21.44-8.704 21.44-19.472c0-10.768-9.584-19.472-21.44-19.472-11.84 0-21.424 8.704-21.424 19.472zM186.48 163.824h144.688l25.424-40.016h-195.52l25.408 40.016zM136.336 84.864h244.992l24.736-38.96h-294.48l24.752 38.96zM398.704 193.024v253.168c0 16.144-14.4 29.2-32.144 29.2h-214.224c-17.744 0-32.128-13.056-32.128-29.2v-253.168c0-16.144 14.384-29.2 32.128-29.2h9.728l-124.352-195.824h24.416l24.736 38.96h343.936l24.736-38.96h24.416l-124.368 195.824h10.976c17.744 0 32.144 13.072 32.144 29.2z" />
<glyph unicode="&#xe638;" glyph-name="delete-btn" d="M256 480c-140.8 0-256-115.2-256-256s115.2-256 256-256 256 115.2 256 256-115.2 256-256 256zM256 0.914c-124.343 0-223.085 98.743-223.085 223.086s98.743 223.086 223.085 223.086 223.086-98.743 223.086-223.086-98.743-223.086-223.086-223.086zM358.4 240.457h-197.486c-9.143 0-16.457-7.315-16.457-16.457s7.315-16.457 16.457-16.457h195.657c9.143 0 16.457 7.315 16.457 16.457s-7.315 16.457-14.628 16.457z" />
<glyph unicode="&#xe639;" glyph-name="iPhone" d="M418.464 416h-324.928c-16.304 0-29.536-13.216-29.536-29.536v-324.928c0-16.304 13.232-29.536 29.536-29.536h324.944c16.304 0 29.52 13.232 29.52 29.536v324.928c0 16.32-13.216 29.536-29.536 29.536zM350.256 104.096c0-12.512-10.176-22.672-22.72-22.672h-136.208c-12.544 0-22.704 10.16-22.704 22.672v226.864c0 12.528 10.16 22.672 22.704 22.672h136.208c12.544 0 22.72-10.16 22.72-22.672v-226.864zM282.144 342.288h-56.768v-11.328h57.472l-0.704 11.328zM191.312 138.128h136.224v181.488h-135.984l-0.24-181.488zM259.2 121.104c-6.272 0-11.344-5.072-11.344-11.328 0-6.288 5.072-11.36 11.344-11.36s11.344 5.072 11.344 11.36c0 6.256-5.088 11.328-11.344 11.328z" />
<glyph unicode="&#xe63a;" glyph-name="support" d="M461.995 310.486c-19.541 5.12-65.536 5.056-132.8 6.827 3.158 14.678 3.882 27.904 3.882 51.392 0 56.128-40.875 105.536-77.077 105.536-25.558 0-46.635-20.885-46.934-46.55-0.363-31.509-10.090-85.888-62.614-113.493-3.84-2.026-14.848-7.466-16.47-8.171l0.832-0.704c-8.213 7.104-19.606 12.523-31.275 12.523h-46.955c-25.878 0-46.955-21.035-46.955-46.912v-250.262c0-25.877 21.078-46.912 46.955-46.912h46.955c18.624 0 34.198 11.264 41.749 27.008 0.192-0.043 0.534-0.149 0.746-0.171 1.024-0.277 2.219-0.598 3.733-0.981 0.278-0.064 0.427-0.086 0.704-0.214 9.002-2.197 26.368-6.378 63.446-14.89 7.978-1.792 49.942-10.752 93.462-10.752h85.546c26.091 0 44.885 10.026 56.086 30.144 0.128 0.32 3.755 7.317 6.699 16.853 2.176 7.147 3.008 17.259 0.341 27.541 16.789 11.498 22.208 28.95 25.75 40.32 5.866 18.666 4.075 32.618 0 42.646 9.45 8.938 17.536 22.507 20.906 43.264 2.134 12.864-0.171 26.091-6.080 37.099 8.875 9.942 12.906 22.442 13.334 34.026l0.214 3.286c0.128 2.048 0.214 3.306 0.214 7.808-0.022 19.776-13.717 44.971-44.394 53.738zM115.178 20.672c0-8.618-6.998-15.637-15.638-15.637h-46.955c-8.64 0-15.637 7.019-15.637 15.637v250.262c0 8.64 6.998 15.637 15.638 15.637h46.954c8.64 0 15.638-6.998 15.638-15.637v-250.262zM474.752 246.912c-0.341-7.722-3.584-22.912-30.954-22.912-23.466 0-31.296 0-31.296 0-4.33 0-7.829-3.498-7.829-7.808 0-4.33 3.498-7.808 7.829-7.808 0 0 6.827 0 30.293 0s26.582-19.456 25.046-28.864c-1.92-11.67-7.424-33.728-33.834-33.728-26.368 0-37.163 0-37.163 0-4.33 0-7.829-3.478-7.829-7.786s3.498-7.851 7.829-7.851c0 0 18.582 0 30.827 0 26.368 0 24.086-20.118 20.245-32.128-4.95-15.808-8.043-30.421-41.301-30.421-11.243 0-25.536 0-25.536 0-4.33 0-7.786-3.478-7.786-7.829 0-4.31 3.456-7.808 7.786-7.808 0 0 10.88 0 24.576 0 17.13 0 17.92-16.192 16.086-21.974-1.92-6.358-4.245-11.094-4.33-11.286-4.757-8.534-12.373-13.675-28.502-13.675h-85.546c-42.986 0-85.589 9.771-86.678 10.026-65.002 14.933-68.438 16.106-72.512 17.28 0 0-13.226 2.219-13.226 13.781l-0.107 215.978c0 7.339 4.672 13.952 12.416 16.32 0.96 0.363 2.262 0.768 3.221 1.173 71.51 29.589 93.248 94.464 93.888 147.733 0.085 7.488 5.867 15.637 15.637 15.637 16.534 0 45.781-33.173 45.781-74.24 0-37.056-1.493-43.499-14.486-82.134 156.48 0 155.392-2.262 169.195-5.866 17.13-4.886 18.582-19.072 18.582-23.958 0.022-5.376-0.106-4.587-0.32-9.856zM76.053 67.606c-12.971 0-23.488-10.496-23.488-23.466s10.517-23.488 23.488-23.488c12.95 0 23.466 10.496 23.466 23.488 0.022 12.971-10.496 23.466-23.466 23.466zM76.053 36.33c-4.309 0-7.85 3.478-7.85 7.808 0 4.288 3.541 7.808 7.85 7.808s7.829-3.52 7.829-7.808c0-4.33-3.52-7.808-7.829-7.808z" />
<glyph unicode="&#xe63b;" glyph-name="account" d="M503.466-19.2l-29.866-12.8h-435.2l-27.733 12.8h-4.266c0 138.666 110.933 249.6 249.6 249.6s249.6-110.934 249.6-249.6v0h-2.134zM256 204.8c-121.6 0-221.867-104.534-221.867-234.666h443.733c0 128-100.267 234.667-221.866 234.667zM247.466 230.4c-68.267 0-123.734 55.466-123.734 123.734-2.133 70.4 55.467 125.866 123.734 125.866s123.733-55.466 123.733-123.733c0-70.4-55.466-125.867-123.733-125.867zM247.466 454.4c-53.334 0-98.133-44.8-98.133-98.133s42.667-98.133 96-98.133 96 42.666 96 98.133c2.134 53.334-40.534 98.133-93.867 98.133z" />
<glyph unicode="&#xe63c;" glyph-name="calendar" d="M162.133 273.067v-168.534h25.6v215.466h-17.066c-4.267-8.534-12.8-19.2-23.466-27.733-10.667-10.666-23.466-19.2-38.4-25.6v-25.6c8.534 2.133 17.067 8.534 27.733 12.8 10.666 6.4 19.2 12.8 25.6 19.2zM307.2 185.6c-14.933-12.8-25.6-23.466-34.133-32s-12.8-19.2-17.067-27.733c-2.133-6.4-4.267-12.8-2.133-19.2h140.8v25.6h-104.534c2.134 4.267 6.4 8.534 10.666 14.933 4.267 4.267 14.933 12.8 29.866 27.733 19.2 14.933 32 27.733 40.534 38.4 8.534 8.534 14.933 17.066 17.067 25.6 4.267 8.534 4.267 17.066 4.267 25.6 0 17.067-6.4 32-17.067 42.666-12.8 10.666-27.733 17.066-49.067 17.066s-36.267-4.266-49.067-14.933c-12.8-10.666-19.2-25.6-21.334-46.933l27.733-2.134c0 12.8 4.267 23.466 10.666 32 8.534 8.534 17.067 10.666 29.866 10.666s21.334-4.267 29.866-10.666c6.4-6.4 10.666-14.933 10.666-25.6s-4.267-21.333-12.8-32c-6.4-14.934-21.334-32-44.8-49.066zM467.2 426.666h-44.8v-34.133h44.8c12.8 0 10.666 2.133 10.666-10.667v-337.067c0-12.8 2.134-10.666-10.666-10.666h-422.4c-12.8 0-10.666-2.134-10.666 10.666v337.067c0 12.8-2.133 10.666 10.666 10.666h55.466v34.134h-55.467c-23.466 0-44.8-21.334-44.8-44.8v-337.067c0-25.6 19.2-44.8 44.8-44.8h422.4c25.6 0 44.8 19.2 44.8 44.8v337.067c0 23.466-19.2 44.8-44.8 44.8zM345.6 426.666h-166.4v-34.133h166.4v34.133zM155.733 448h-32v-91.733h34.133v91.733zM401.067 448h-34.134v-91.733h34.134v91.733z" />
<glyph unicode="&#xe63d;" glyph-name="call" d="M332.8 189.866c-27.733 0-53.334-17.067-64-40.534-36.267 19.2-66.133 49.067-83.2 87.466 27.733 10.666 44.8 36.267 44.8 68.267 0 40.534-32 72.534-72.534 72.534-34.133 0-64-25.6-70.4-57.6v0c0-4.267 0-8.534 0-12.8 0 0 0-2.133 0-2.133s0 0 0 0c0-132.267 100.266-241.066 228.267-258.134 6.4-2.134 10.666-2.134 17.067-2.134s12.8 0 17.067 2.134c0 0 2.134 0 2.134 0 2.134 0 6.4 2.134 8.534 2.134v4.267c0 0 0 0 0 2.134 4.267 6.4 2.134 14.933-4.267 19.2h-2.134c-4.267 2.134-10.666 2.134-14.933 0v0c-2.134 0-2.134 0-4.267 0-4.267 0-8.534 0-12.8 2.134-38.4 4.267-61.867 14.933-72.534 21.334-51.2 25.6-93.867 68.267-115.2 121.6-4.267 4.267-17.067 36.267-17.067 83.2v0c0 0 0 2.133 0 2.133 0 23.466 19.2 42.667 42.666 42.667s42.667-19.2 42.667-42.666c0-21.334-14.934-38.4-36.267-42.666v0c-6.4 0-12.8-6.4-12.8-14.934v-2.133c0-4.267 2.133-8.534 4.267-10.666l-2.133-2.133c0 0 0 0 0 0 19.2-49.066 55.466-89.6 102.4-110.934 0 0 0 0 0 0l2.134 2.134c2.134-2.134 2.134-4.267 4.267-4.267h2.134c6.4-4.267 14.933-2.134 19.2 4.267 2.134 2.134 2.134 4.267 2.134 6.4 4.267 19.2 21.334 32 42.666 32 23.466 0 42.666-19.2 42.666-42.666 0-4.267 0-8.534-2.134-12.8v0c0 0 0 0 0 0-4.267-6.4-2.134-14.933 4.267-19.2h2.134c4.267-2.134 10.666-2.134 14.933 0l2.134-2.134c0 2.134 2.134 4.267 2.134 4.267s0 0 0 0 0 0 0 0c4.267 8.534 6.4 19.2 6.4 29.866 2.134 38.4-29.866 70.4-70.4 70.4zM256 477.866c-140.8 0-256-113.066-256-253.866s115.2-253.866 256-253.866 256 113.067 256 253.867-115.2 253.867-256 253.867zM256-8.534c-128 0-234.667 104.534-234.667 234.667 0 128 106.666 232.534 234.667 232.534s234.667-104.534 234.667-234.667c0-128-104.534-232.534-234.667-232.534z" />
<glyph unicode="&#xe63e;" glyph-name="cellphone" d="M375.466-32h-238.934c-36.267 0-64 27.733-64 64v384c0 36.267 27.733 64 64 64h238.934c36.267 0 64-27.733 64-64v-384c0-34.134-27.733-64-64-64zM407.466 416c0 17.067-14.933 32-32 32h-238.934c-17.067 0-32-14.933-32-32v-14.933h302.933v14.933zM407.466 366.933h-302.933v-256h302.933v256zM407.466 81.067h-302.933v-49.067c0-17.067 14.933-32 32-32h238.933c17.067 0 32 14.933 32 32v49.067zM256 17.067c-12.8 0-23.466 10.666-23.466 23.466s10.666 23.466 23.466 23.466c12.8 0 23.466-10.666 23.466-23.466s-10.666-23.466-23.466-23.466z" />
<glyph unicode="&#xe63f;" glyph-name="email" d="M0 36.267v375.466h512v-377.6h-512zM25.6 76.8l147.2 147.2-147.2 147.2v-294.4zM40.533 388.267l185.6-185.6c21.333-21.334 36.266-21.334 55.467 0l185.6 185.6h-426.666zM471.466 59.733l-147.2 147.2c-29.866-29.866-46.933-49.067-68.267-49.067-19.2 0-38.4 19.2-68.267 49.067l-147.2-147.2h430.933zM339.2 224l147.2-147.2v294.4l-147.2-147.2z" />
<glyph unicode="&#xe640;" glyph-name="pass" d="M366.933 309.333v59.734c0 61.866-49.067 110.933-110.933 110.933s-110.933-49.067-110.933-110.933v-59.734h-110.933v-341.333h441.6v341.334h-108.8zM170.667 369.067c0 46.933 38.4 85.333 85.333 85.333s85.334-38.4 85.334-85.333v-59.734h-170.667v59.734zM452.267-6.4h-392.534v290.134h392.534v-290.134zM234.667 136.534l-10.667-83.2h66.134l-12.8 83.2c17.067 6.4 27.733 23.466 27.733 42.666 0 25.6-21.334 46.934-49.067 46.934s-49.066-21.333-49.066-46.934c0-21.334 10.667-36.267 27.733-42.666z" />
<glyph unicode="&#xe641;" glyph-name="password" d="M256 302.933c-42.666 0-78.933-34.133-78.933-78.933s34.133-78.933 78.933-78.933 78.933 34.134 78.933 78.933-36.267 78.933-78.933 78.933zM256 164.267c-32 0-59.733 25.6-59.733 59.733s25.6 59.733 59.733 59.733 59.733-25.6 59.733-59.733-27.733-59.733-59.733-59.733zM256 360.534c-177.066 0-256-136.534-256-136.534s78.933-136.534 256-136.534 256 136.534 256 136.534-78.933 136.534-256 136.534zM256 106.666c-157.867 0-232.534 117.334-232.534 117.334s74.666 117.334 232.534 117.334 232.534-117.334 232.534-117.334-74.666-117.334-232.534-117.334z" />
<glyph unicode="&#xe642;" glyph-name="pencil" d="M44.8 153.6l311.466 313.6c17.067 17.067 38.4 17.067 57.6 0l85.334-85.334c17.067-17.066 17.067-40.533 0-57.6l-313.6-311.466-155.733-42.666c-21.334-4.267-32 6.4-27.733 27.733l42.666 155.733zM74.666 128l-32-117.334 117.334 32-85.334 85.334zM456.534 339.2c14.933 12.8 12.8 12.8 0 27.733l-57.6 57.6c-12.8 14.933-14.933 14.933-27.733 0l-55.466-55.466 85.334-85.334 55.466 55.466zM189.867 70.4l183.466 183.466-85.334 85.334-183.466-183.466c6.4-6.4 55.466-55.466 85.334-85.334z" />
<glyph unicode="&#xe643;" glyph-name="read" d="M307.2 273.6c0-9.6 8-17.6 17.6-17.6s17.6 8 17.6 17.6v102.4c25.6 0 33.6-4.8 33.6-30.4v-294.4c0-6.4 4.8-12.8 9.6-16 14.4 4.8 24 17.6 24 32v308.8c-1.6 17.6-16 32-33.6 32h-241.6c-17.6-1.6-33.6-16-33.6-33.6v-305.6c0-19.2 16-33.6 33.6-33.6h188.8c9.6 0 17.6 8 17.6 17.6s-8 17.6-17.6 17.6h-153.6c-27.2 0-33.6 4.8-33.6 33.6v-35.2 273.6c0 28.8 6.4 33.6 33.6 33.6h137.6v-102.4zM376 377.6v0z" />
<glyph unicode="&#xe644;" glyph-name="remind" d="M349.866 454.4c-2.134 0-2.134 0-4.267 0-4.267 0-8.534-2.133-12.8-4.266l-196.267-89.6h-89.6c-25.6 0-46.934-19.2-46.934-44.8v-185.6c0-23.466 21.334-44.8 46.934-44.8h23.466c12.8 0 23.466 10.666 23.466 23.466s-8.534 21.334-21.334 23.466h2.133c-27.733 2.134-27.733 8.534-27.733 44.8v-2.134 93.866c0 34.134 6.4 44.8 38.4 44.8h55.466c2.133 0 4.267 0 6.4 2.133 0 0 0 0 0 0 2.133 0 2.133 0 4.267 2.134 2.133 0 4.267 2.134 4.267 2.134l170.667 76.8v-345.6l-149.333 70.4c-10.667 8.534-25.6 4.267-32-4.267-8.534-10.666-4.267-25.6 4.267-32l183.466-85.334c4.267-4.267 10.666-4.267 14.933-4.267 0 0 0 0 2.134 0 12.8 0 23.466 10.666 23.466 23.466v413.866c0 10.666-10.666 21.334-23.466 21.334zM46.934 132.267v0zM46.934 315.733v0 0zM512 224c0 55.466-27.733 102.4-70.4 132.267 0 0 0 0 0 0s0 0-2.134 0c0 0 0 0 0 0v0c-14.933 0-27.733-12.8-27.733-29.867v-2.133c0-17.066 12.8-29.867 27.733-29.867v0c14.933-19.2 23.466-42.666 23.466-70.4s-8.534-51.2-23.466-70.4v0c-14.933 0-27.733-12.8-27.733-29.866v-2.134c0-17.067 12.8-29.866 27.733-29.866v0c0 0 0 0 0 0s0 0 2.134 0c0 0 0 0 0 2.134 42.666 27.733 70.4 76.8 70.4 130.133z" />
<glyph unicode="&#xe645;" glyph-name="search" d="M505.6 4.267l-68.267 68.267-74.666 72.534h-29.866c0 0 0 0 0 0-29.866-29.866-72.534-49.067-119.466-49.067-93.867 0-170.667 76.8-170.667 170.667s76.8 170.666 170.667 170.666c93.866 0 170.667-76.8 170.667-170.666 0-14.934-2.134-29.867-6.4-44.8l2.134-2.134c-4.267-4.267-6.4-8.534-6.4-14.933v-2.134c0-10.666 8.534-21.334 21.334-21.334 6.4 0 10.666 2.134 14.933 6.4l2.134-2.134c0 2.134 2.134 4.267 2.134 6.4s0 2.134 2.134 4.267c6.4 21.334 10.666 44.8 10.666 68.267 0 117.334-96 213.333-213.333 213.333s-213.333-96-213.333-213.333c0-117.334 96-213.333 213.333-213.333 51.2 0 98.133 17.067 134.4 46.933l125.866-125.866c8.534-8.534 21.334-8.534 29.866 0 8.534 10.666 8.534 25.6 2.134 32z" />
<glyph unicode="&#xe646;" glyph-name="write" d="M441.6 224c-12.8 0-23.466-10.666-23.466-23.466v-117.334c0-36.267-8.534-44.8-46.933-44.8h-277.333c-34.133 0-44.8 6.4-46.934 36.267v290.134c0 36.267 6.4 44.8 40.533 46.934h307.2c12.8 0 23.466 10.666 23.466 23.466s-10.666 23.466-23.466 23.466h-349.866c-25.6-4.267-44.8-23.466-44.8-49.067v-375.466c2.134-25.6 21.334-44.8 46.934-44.8h373.334c25.6 0 46.933 21.334 46.933 46.933v164.267c-2.134 12.8-12.8 23.466-25.6 23.466zM46.934 409.6v0zM501.334 401.067c-12.8 12.8-34.133 12.8-44.8 0l-262.4-262.4c-12.8-12.8-12.8-34.134 0-44.8 12.8-12.8 34.133-12.8 44.8 0l262.4 262.4c12.8 12.8 12.8 34.133 0 44.8z" />
<glyph unicode="&#xe647;" glyph-name="businessvista" d="M443.733-32h-375.466c-37.696 0-68.266 30.57-68.266 68.267v187.733h173.077c-1.494-5.44-2.411-11.136-2.411-17.067 0-37.696 30.571-68.267 68.267-68.267s68.267 30.57 68.267 68.267c0 5.93-0.918 11.627-2.411 17.067h207.211v-187.733c0-37.696-30.57-68.267-68.267-68.267zM273.067 206.933c0-18.858-15.274-34.134-34.133-34.134s-34.133 15.274-34.133 34.134c0 6.25 1.792 12.032 4.736 17.067h58.795c2.944-5.034 4.736-10.816 4.736-17.067zM136.534 258.134h-136.534v85.333c0 37.696 30.57 68.267 68.266 68.267h68.266v34.133c0 18.858 15.274 34.134 34.133 34.134h136.534c18.858 0 34.133-15.274 34.133-34.134v-34.133h102.4c37.696 0 68.267-30.57 68.267-68.267v-85.334h-375.466zM307.2 428.8c0 9.43-7.637 17.066-17.067 17.066h-102.4c-9.429 0-17.066-7.637-17.066-17.066v-17.067c10.133 0 126.4 0 136.534 0v17.067z" />
<glyph unicode="&#xe648;" glyph-name="popup-help" d="M254.656 453.904c-123.712 0-224-100.288-224-224s100.288-224 224-224c123.712 0 224 100.288 224 224s-100.288 224-224 224zM253.104 98.848c-4.352-4.192-9.568-6.288-15.648-6.288-5.84 0-10.944 2.064-15.296 6.192s-6.528 9.344-6.528 15.664c0 6.192 2.16 11.344 6.432 15.536 4.32 4.192 9.44 6.288 15.392 6.288 6.080 0 11.28-2.128 15.648-6.336 4.352-4.256 6.528-9.408 6.528-15.472 0.016-6.208-2.16-11.408-6.528-15.584zM313.264 267.2c-6.192-10.896-16.56-22.336-31.104-34.368-11.68-9.744-19.536-17.472-23.552-23.2-4.016-5.744-6.016-13.744-6.016-24.048v-13.408h-29.904v14.784c0 12.032 2.4 22.352 7.216 31.008s13.408 17.792 25.776 27.408c12.144 9.392 20.832 18.192 26.048 26.384 5.2 8.192 7.808 17.616 7.808 28.272 0 11.344-4.032 20.672-12.128 28.016-8.064 7.328-19.040 11.008-32.912 11.008-21.888 0-41.136-8.32-57.744-24.928v35.056c19.248 12.032 40.112 18.048 62.56 18.048 22.336 0 40.128-5.872 53.376-17.616 13.216-11.744 19.84-27.136 19.84-46.144 0.016-13.312-3.072-25.392-9.264-36.272z" />
<glyph unicode="&#xe649;" glyph-name="popup-info" d="M256 448c-123.696 0-224-100.304-224-224.032 0-123.68 100.304-223.968 224-223.968 123.712 0 224 100.288 224 223.968 0 123.728-100.288 224.032-224 224.032zM272.256 84.88h-33.696v190.080h33.68v-190.080zM271.136 327.12c-4.208-3.952-9.328-5.936-15.392-5.936-6.080 0-11.12 1.984-15.12 5.936-4.016 3.952-6.016 8.912-6.016 14.864s2.032 10.976 6.096 15.040c4.064 4.064 9.072 6.096 15.040 6.096 6.064 0 11.184-2 15.392-6.016 4.176-4.016 6.272-9.056 6.272-15.12 0-5.952-2.096-10.912-6.272-14.864z" />
<glyph unicode="&#xe64a;" glyph-name="exercise" d="M184 352c-17.664 0-32-14.336-32-32v-80h-16v48c0 8.848-7.152 16-16 16s-16-7.152-16-16v-48.272c-9.52-0.8-16-3.92-16-15.728s6.48-14.928 16-15.728v-48.272c0-8.848 7.152-16 16-16s16 7.152 16 16v48h16v-80c0-17.664 14.336-32 32-32s32 14.336 32 32v192c0 17.664-14.336 32-32 32zM232 208h64v32h-64v-32zM424 239.728v48.272c0 8.848-7.152 16-16 16s-16-7.152-16-16v-48h-16v80c0 17.664-14.336 32-32 32s-32-14.336-32-32v-192c0-17.664 14.336-32 32-32s32 14.336 32 32v80h16v-48c0-8.848 7.152-16 16-16s16 7.152 16 16v48.272c9.536 0.8 16 3.92 16 15.728s-6.464 14.928-16 15.728z" />
<glyph unicode="&#xe64b;" glyph-name="massage" d="M376.32 133.568c19.536 0 35.376 15.584 35.376 34.784 0 19.216-15.84 34.784-35.376 34.784-19.552 0-35.392-15.568-35.392-34.784s15.84-34.784 35.392-34.784zM440 119.664h-1.424c-2.944 8.064-10.592 13.904-19.808 13.904s-16.864-5.84-19.792-13.904h-1.584c0-5.072-15.776-13.84-35.232-13.84-19.472 0-35.232 12.416-35.232 27.744h-2.448c1.36 3.008 2.208 6.272 2.224 9.776l0.096 35.776c0.032 13.168-10.496 23.872-23.536 23.904l-4.832-0.336c-0.928 2.32-2.144 4.528-3.92 6.48l-56.944 61.936c-2.752 3.008-6.272 4.656-9.936 5.68l-18.512 27.616c-8.608 12.832-26.176 16.368-39.216 7.904l-81.904-51.424 2-1.152c-11.088-7.2-18-16.944-18-27.728 0-22.096 28.656-40 64-40 19.232 0 36.288 5.408 48.016 13.808l4.672-2.688 31.52 24.608 26.336-28.64-108.416-7.536c-13.008 0.032-23.616-10.608-23.664-23.776l-0.096-11.936c-0.032-13.152 10.496-23.872 23.536-23.904l147.984-11.088c7.456-35.328 44.736-56.848 76.272-56.848 25.904 0 55.744 13.216 69.728 32.688 4.832 3.824 8.112 9.44 8.112 16.016 0 1.088-0.464 2.048-0.64 3.104 0.144 1.296 0.64 2.528 0.64 3.856zM277.232 286.608c27.36 0 49.536 21.792 49.536 48.688 0 26.912-22.176 48.704-49.536 48.704s-49.552-21.792-49.552-48.704c0-26.896 22.192-48.688 49.552-48.688z" />
<glyph unicode="&#xe64c;" glyph-name="meet" d="M128 368h32c8.848 0 16 7.152 16 16s-7.152 16-16 16h-32c-8.832 0-16-7.152-16-16s7.168-16 16-16zM144 320c17.664 0 32 14.336 32 32h-64c0-17.664 14.336-32 32-32zM171.152 301.664c-7.536-18.56-22.432-55.136-24.064-59.136-1.392-3.44-4.752-3.376-6.16 0-1.2 2.912-16.384 40.144-24.080 59.136-15.248-2.72-27.2-7.632-32.912-13.664h-3.936v-32l32-176c0-17.664 14.336-32 32-32s32 14.336 32 32l32 176v32h-3.92c-5.728 6.032-17.664 10.944-32.928 13.664zM426.4 182.512c-2.656 4.848-9.936 10.368-9.936 10.368l-30.096 73.728c-6.256 13.984-24.624 21.344-32.624 21.344h-113.744v-31.072h90.656c12.976 0.736 22.56-9.296 24.256-13.664 7.12-10.4 24-40.56 25.44-45.248 1.664-5.568-3.84-5.072-3.84-5.072h-147.968l-8.688-47.744c2.032-5.024 3.024-8.832 3.024-8.832s-2.032-1.12-5.088-2.544l-7.952-43.664h153.008v-29.616c0-9.616 2.496-12.448 12.432-12.448h22.336c9.936 0 12.432 2.848 12.432 12.448v29.616l6.592 3.408c8.384 3.904 15.36 15.248 15.36 47.136 0 32.688-2.912 37.008-5.6 41.856zM375.968 128.4c-14.528-5.904-38.848 7.904-38.848 7.904s6.976 26.512 21.472 32.4c14.528 5.888 30.16 1.648 34.944-9.504 4.8-11.104-3.072-24.896-17.568-30.8z" />
<glyph unicode="&#xe64d;" glyph-name="park" d="M338.32 228.768c-14.176-16.56-33.696-24.848-58.592-24.848-4.176 0-10.448 0.24-18.832 0.704s-30.656 0.704-34.832 0.704c-4.48 0-6.72-1.936-6.72-5.776 0-4.8 0.464-59.936 1.408-69.408 0.944-9.488 1.408-16.56 1.408-21.248 0-1.6-0.656-2.448-1.616-2.992-0.272-17.456-14.448-31.52-31.952-31.52-17.664 0-32 14.336-32 32 0 1.904 0.24 3.76 0.56 5.6 0.016 13.376 0.192 76.336 0.544 99.040 0.352 23.168 0.544 40.544 0.544 52.112 0 32.704-1.408 67.072-4.224 103.12l-0.16 2.192c-0.192 1.984 1.376 3.184 4.704 3.6 8.128 1.040 26.032 1.568 53.744 1.568 16.352 0 48.032-0.208 63.040-0.624 24.688-0.736 44.576-8.496 59.68-23.28 15.424-15.216 23.12-35.104 23.12-59.68 0.016-25.232-6.592-45.648-19.824-61.264zM260.336 323.92c-16.672 0-41.424-0.944-42.256-2.816-0.736-1.36-1.088-13.392-1.088-36.096 0-3.232 0.128-8 0.384-14.304 0.272-6.304 0.384-11.072 0.384-14.304 0-2.080 25.376-3.12 44.128-3.12 22.624 0 33.92 11.408 33.92 34.224 0 24.272-11.824 36.416-35.472 36.416z" />
<glyph unicode="&#xe64e;" glyph-name="plane22" d="M417.44 247.664l-107.008 0.256-100.976 160.080-44 0.336 54.992-159.952-84.992 0.272-29.84 30.56-35.040 0.24 18.896-55.792-18.816-56.64h33.312l32.496 32.624h84l-54-159.984h43.008l99.984 159.984h108c13.248 0 24 10.752 24 24.016-0.016 13.248-10.768 24-24.016 24z" />
<glyph unicode="&#xe64f;" glyph-name="playground" d="M250.656 286.8c5.568 6.864 4.496 16.944-2.352 22.496-6.88 5.568-16.96 4.512-22.512-2.352l-29.712-36.688c-3.168 1.040-6.48 1.744-10 1.744h-48c-3.52 0-6.832-0.704-10-1.744l-29.696 36.688c-5.568 6.88-15.648 7.92-22.512 2.352s-7.92-15.648-2.352-22.496l33.168-40.96c-0.368-1.888-0.608-3.84-0.608-5.84v-136c0-13.248 10.752-24 24-24s24 10.752 24 24v24h16v-24c0-13.248 10.752-24 24-24s24 10.752 24 24v136c0 2-0.24 3.952-0.592 5.84l33.168 40.96zM218.064 190.848v-31.024c-0.128-1.040-2.4-2.336-2.4-2.336s-51.456-28.8-52.080-29.136c-0.64-0.352-2-0.528-2.976 0.016-0.992 0.544-52.416 29.12-52.416 29.12s-2.096 1.2-2.096 2.336v31.024c0 0.64 0.944 1.152 2.096 1.152h107.776c1.152 0 2.096-0.512 2.096-1.152zM162.080 288c22.096 0 40 17.904 40 40s-17.904 40-40 40-40-17.904-40-40 17.904-40 40-40zM346.080 304c-14.128 0-27.44-3.2-39.504-8.688 26.736-4 130.832-26.88 104.304-137.568 0 0-26.864 95.312-106.912 136.416-13.68-6.736-25.584-16.576-34.656-28.672 24.72-101.056 115.168-134.272 115.168-134.272-129.2-6.032-115.44 132.128-115.216 134.208-12-16.016-19.184-35.856-19.184-57.408 0-53.008 42.992-96 96-96s96 42.992 96 96-42.992 95.984-96 95.984z" />
<glyph unicode="&#xe650;" glyph-name="spa" d="M125.232 198.304c-5.616 6.944-8.432 12.8-8.432 17.568 0 5.312 2.528 9.456 7.616 12.416 4.224 2.592 9.136 3.872 14.784 3.872 0.768 0 1.904-0.128 3.392-0.336 1.488-0.256 2.528-0.352 3.152-0.352 1.408 0 2.112 0.656 2.112 1.984 0 0.32-0.112 0.704-0.336 1.168-7.424 14.928-12.16 25.232-14.192 30.944-0.704 1.872-1.648 2.816-2.816 2.816-0.464 0-1.12-0.032-1.984-0.112-15.696-2.336-28.96-7.424-39.728-15.232-13.2-9.456-19.792-21.328-19.792-35.632 0-9.84 2.688-18.832 8.080-26.96 0.784-1.168 5.776-7.056 15.008-17.68 5.312-6.272 7.968-11.92 7.968-16.992 0-7.968-4.064-13.984-12.192-18.048-3.664-1.792-11.168-3.984-22.496-6.56-1.152-0.24-1.744-0.784-1.744-1.648 0-2.416 3.072-9.12 9.248-20.096 6.128-10.992 10.128-16.464 11.92-16.464 0.384 0 0.912 0.032 1.536 0.112 16.8 2.736 31.040 9.104 42.768 19.104 13.376 11.328 20.048 24.928 20.048 40.784 0 8.512-2.768 17.056-8.336 25.664-0.48 0.608-5.664 7.168-15.584 19.68zM276.048 245.536c-11.328 11.088-26.256 16.928-44.768 17.456-11.248 0.32-23.008 0.464-35.28 0.464-20.784 0-34.224-0.384-40.32-1.168-2.496-0.32-3.664-1.2-3.52-2.688l0.128-1.648c2.112-27.024 3.152-52.816 3.152-77.344 0-8.672-0.144-21.696-0.4-39.072-0.288-17.392-0.4-30.416-0.4-39.088 0-2.272 1.12-3.392 3.392-3.392 4.768 0 11.92-0.144 21.456-0.4 9.536-0.288 16.672-0.416 21.44-0.416 1.648 0 2.464 0.912 2.464 2.704 0 3.52-0.352 8.832-1.056 15.936s-1.040 12.448-1.040 16.048c0 2.896 1.664 4.336 5.024 4.336 3.12 0 7.824-0.176 14.128-0.528 6.288-0.336 11.008-0.528 14.128-0.528 18.672 0 33.312 6.224 43.936 18.64 9.92 11.712 14.896 27.024 14.896 45.936-0.016 18.416-5.792 33.344-17.36 44.752zM221.2 173.216c-14.080 0-21.088 0.784-21.088 2.352 0 2.4-0.112 5.984-0.304 10.72-0.208 4.72-0.304 8.304-0.304 10.72 0 17.024 0.272 26.064 0.832 27.056 0.624 1.408 7.184 2.112 19.68 2.112 17.728 0 26.592-9.088 26.592-27.296 0.016-17.104-8.464-25.664-25.408-25.664zM420.512 177.664c-18.512 48.048-29.68 76.176-33.52 84.368-1.248 2.592-2.608 3.872-4.096 3.872-2.032 0-5.104-0.144-9.2-0.4-4.112-0.288-7.2-0.416-9.312-0.416-2.192 0-5.504 0.208-9.904 0.592-4.416 0.384-7.664 0.576-9.776 0.576-1.248 0-2.336-1.488-3.28-4.448-1.648-5.152-12.032-33.632-31.168-85.424-17.664-47.888-26.48-72.864-26.48-74.896 0-2.272 5.968-3.392 17.92-3.392 15.152 0 24.064 0.32 26.72 0.944 2.112 0.544 3.904 4.064 5.392 10.544 1.648 7.104 3.12 11.296 4.448 12.528 0.864 0.704 7.936 1.056 21.216 1.056 19.68 0 30.16-0.288 31.408-0.832 1.488-0.784 3.552-6.784 6.208-18.032 0.704-2.992 2.384-4.736 5.040-5.28 3.2-0.624 10.384-0.944 21.568-0.944 12.192 0 19.456 0.32 21.792 0.944 1.952 0.544 2.928 1.52 2.928 2.928-0.016 2.128-9.312 27.36-27.904 75.712zM378.224 164.208c-0.544-1.248-3.408-1.872-8.56-1.872-5.552 0-9.536 0.080-11.952 0.24-4.688 0.16-7.024 0.944-7.024 2.336 0 2.112 2.112 9.248 6.336 21.44 3.904 11.488 6.688 18.96 8.336 22.384 1.648-3.12 4.224-10.32 7.728-21.568 3.6-11.648 5.392-18.752 5.392-21.328-0.032-0.704-0.112-1.248-0.256-1.632zM258.432 323.040c59.296 0 111.312-30.816 141.216-77.2-23.856 63.728-85.152 109.2-157.216 109.2-60.464 0-113.328-32.064-142.912-80h41.44c30.304 29.664 71.728 48 117.472 48z" />
<glyph unicode="&#xe651;" glyph-name="swimming" d="M384 352c-30.928 0-56-25.056-56-56s25.072-56 56-56 56 25.056 56 56-25.072 56-56 56zM216 288c-68.512 0-125.728-47.904-140.32-112 3.504-8.496 13.392-16.992 28.32-16 13.216 0.896 15.824 3.328 30.832 29.808 16 28.448 46.208 47.776 81.168 47.776 4.288 0 8.464-0.432 12.592-0.992l-92.592-92.592h224v32l-5.072 5.072c-16.4 61.504-72.256 106.928-138.928 106.928zM344 128h-256c-8.848 0-16-7.152-16-16s7.152-16 16-16h256c8.848 0 16 7.152 16 16s-7.152 16-16 16z" />
<glyph unicode="&#xe652;" glyph-name="water" d="M296 400h-80v-48h80v48zM342.72 240c-7.36 51.376-46.72 96-46.72 96h-80c0 0-39.344-44.624-46.704-96h-1.296v-160c0-17.664 14.336-32 32-32h112c17.664 0 32 14.336 32 32v160h-1.28zM232 304h48c0 0 20.24-24.672 28.432-64h-104.864c8.208 39.328 28.432 64 28.432 64zM312 112c0-17.664-14.336-32-32-32h-48c-17.664 0-32 14.336-32 32v32h112v-32z" />
<glyph unicode="&#xe653;" glyph-name="westernfood" d="M299.904 161.968l-3.904-92.8c0-13.248-26.752-24-40-24s-40 10.752-40 24l-3.904 92.8c-43.856 15.024-76.096 64.416-76.096 123.2 0 37.456 29.232 70.928 50.080 94.32 17.68 7.392 13.92-14.32 13.92-14.32l-16-80c0-8.848 7.216-14.976 16-16 21.344-2.496 32 7.152 32 16l10.544 105.456c2.272 1.84 4.272 3.936 5.456 6.544 0 0 8.32 12.736 16 0 1.856-3.088 3.744-5.568 5.568-7.632l10.432-104.368c0-8.848 12.176-20 32-16 8.656 1.744 16 7.152 16 16l-16 80c-2.352 19.872 9.952 18.592 15.008 13.056 20.224-23.328 48.992-56.272 48.992-93.056 0-58.784-32.24-108.176-76.096-123.2z" />
<glyph unicode="&#xe654;" glyph-name="wifi2" d="M431.808 313.040l-43.936-42.8c-72.848 70.928-190.912 70.928-263.744 0l-43.952 42.8c97.12 94.56 254.544 94.56 351.632 0zM365.904 231.056l-43.968-42.8c-36.4 35.472-95.456 35.472-131.888 0l-43.936 42.8c60.688 59.104 159.072 59.104 219.792 0zM256 170.672c29.184 0 52.8-23.872 52.8-53.312s-23.632-53.312-52.8-53.312c-29.152 0-52.816 23.872-52.816 53.312s23.664 53.312 52.816 53.312z" />
<glyph unicode="&#xe655;" glyph-name="back2" d="M368 204.256h-188.176l40.16 44.816c5.904 6.576 5.344 16.688-1.232 22.592-6.576 5.888-16.688 5.344-22.592-1.232l-53.392-59.584c-1.984-2.208-2.976-4.848-3.504-7.552-6.48-2.048-11.264-7.888-11.264-15.040 0-8.848 7.168-16 16-16h224c8.848 0 16 7.152 16 16s-7.152 16-16 16z" />
<glyph unicode="&#xe656;" glyph-name="return" d="M368 152h-188.176l40.16-44.816c5.904-6.576 5.344-16.688-1.232-22.592-6.576-5.888-16.688-5.344-22.592 1.232l-53.392 59.584c-1.984 2.208-2.976 4.848-3.504 7.552-6.48 2.048-11.264 7.888-11.264 15.040 0 8.848 7.168 16 16 16h208v32c0 8.848 7.152 16 16 16s16-7.152 16-16v-48c0-8.848-7.152-16-16-16zM368 264h-208v-32c0-8.848-7.168-16-16-16s-16 7.152-16 16v48c0 8.848 7.168 16 16 16h188.176l-40.16 44.816c-5.888 6.576-5.344 16.688 1.232 22.592 6.576 5.888 16.688 5.344 22.592-1.232l53.392-59.584c1.984-2.208 2.976-4.848 3.52-7.552 6.464-2.048 11.248-7.888 11.248-15.040 0-8.848-7.152-16-16-16z" />
<glyph unicode="&#xe657;" glyph-name="go" d="M372.736 203.296c-0.528 2.704-1.536 5.344-3.504 7.552l-53.392 59.584c-5.904 6.576-16.016 7.12-22.592 1.232-6.576-5.904-7.12-16.016-1.232-22.592l40.16-44.816h-188.176c-8.832 0-16-7.152-16-16s7.168-16 16-16h224c8.848 0 16 7.152 16 16 0 7.152-4.784 12.992-11.264 15.040z" />
<glyph unicode="&#xe658;" glyph-name="hotel" d="M183.824 255.904h32.032v31.968h-32.032v-31.968zM248 192h32v32h-32v-32zM183.824 128.032h32.032v31.968h-32.032v-31.968zM248 256h32v32h-32v-32zM183.824 191.968h32.032v31.968h-32.032v-31.968zM264 160c-22.432 0-32-17.872-32-32v-63.904h64v63.904c0 14.128-11.152 32-32 32zM312 256l32.224-0.096v31.968l-32.224 0.128v-32zM256 448c-128.128 0-232-103.872-232-232.016 0-128.128 103.872-232 232-232s232 103.872 232 232c0 128.144-103.872 232.016-232 232.016zM259.088 400.016l69.104-63.776h-128.352l59.248 63.776zM376 80l0.032-15.904h-80.032v-0.096h-64v0.096h-80v15.904l16.16-0.128v224.176l-16.16-0.048v15.824h224.016l-0.016-15.824-16.096 0.048v-224.176l16.096 0.128zM312 192l32.224-0.032v31.968l-32.224 0.064v-32zM312 128l32.224 0.032v31.968h-32.224v-32z" />
<glyph unicode="&#xe659;" glyph-name="addcard" d="M256 480c-141.152 0-256-114.848-256-256s114.848-256 256-256 256 114.848 256 256-114.848 256-256 256zM256 0c-123.52 0-224 100.48-224 224s100.48 224 224 224 224-100.48 224-224-100.48-224-224-224zM352 240h-80v80c0 8.832-7.152 16-16 16s-16-7.168-16-16v-80h-80c-8.848 0-16-7.168-16-16 0-8.848 7.152-16 16-16h80v-80c0-8.848 7.152-16 16-16s16 7.152 16 16v80h80c8.848 0 16 7.152 16 16 0 8.832-7.152 16-16 16z" />
<glyph unicode="&#xe65a;" glyph-name="fridentsvista" d="M512.043 3.37h-398.293c0 0 3.413 65.899 28.31 82.731s113.792 55.168 113.792 55.168 28.458-55.168 56.896-55.168c28.459 0 56.896 55.168 56.896 55.168s88.918-38.315 113.792-55.168c29.312-19.818 28.608-82.731 28.608-82.731zM313.067 141.12c-57.195-0.149-114.112 82.88-113.77 137.408 0.256 44.501 8.534 138.517 113.77 138.517s113.984-94.016 113.77-138.517c-0.277-54.528-57.173-137.259-113.77-137.408zM180.587 237.376c-10.88-8.278-23.595-13.504-38.23-13.504-56.981 0-85.483 78.315-85.483 113.92s0 106.816 85.483 106.816c39.104 0 60.203-14.955 71.701-34.518-27.563-26.453-43.541-68.971-43.541-130.944 0-10.070 3.862-25.258 10.070-41.77zM142.059 184.363c19.2 0 38.186 17.899 48.64 29.632 10.368-21.589 23.488-42.666 36.714-55.488-16.405-7.594-63.552-29.397-89.707-44.694h-137.77c0 0 5.782 61.93 23.125 74.304s69.355 35.776 69.355 35.776 21.206-39.531 49.642-39.531z" />
<glyph unicode="&#xe65b;" glyph-name="font-cash" d="M475.428 480h-438.857c-20.114 0-36.572-16.457-36.572-36.572v-438.857c0-20.115 16.457-36.571 36.572-36.571h438.857c20.115 0 36.572 16.457 36.572 36.572v438.857c0 20.115-16.457 36.572-36.572 36.572zM239.543 364.8h151.772c0-14.628-1.829-29.257-1.829-42.057v-89.6c0-16.457 0-31.085 1.829-43.886h-25.6v153.6h-100.572v-155.428h-25.6c0 14.628 1.828 32.914 1.828 51.2v73.143c0 18.286 0 36.572-1.828 53.029zM109.715 103.315c-1.829 12.8-5.486 23.772-10.972 32.914 14.629 1.829 31.085 5.486 51.2 9.143v87.772c-14.629 0-27.428 0-42.057-1.828v25.6c12.8 0 27.428-1.828 42.057-1.828v73.143c-16.457 0-31.085 0-42.057-1.829v25.6c10.972 0 20.115-1.828 31.086-1.828h45.714c9.143 0 21.943 0 36.572 1.828v-25.6c-14.629 0-29.257 1.829-45.714 1.829v-73.143c12.8 0 25.6 0 40.228 1.828v-25.6c-14.629 0-27.428 1.828-40.228 1.828v-82.286c14.629 3.657 31.085 7.315 47.543 12.8 0-9.143-1.828-18.286-1.828-25.6-29.257-7.315-53.029-14.628-71.314-20.115s-31.085-10.971-40.228-14.628zM400.457 86.857c-3.657-7.315-14.628-10.971-27.428-12.8h-25.6c-20.115 0-29.257 9.143-29.257 25.6v93.257c-7.315-29.257-20.115-53.029-34.743-71.315s-38.4-36.572-67.657-53.029c-3.657 7.315-12.8 12.8-21.943 18.286 29.257 10.971 49.371 23.772 62.172 38.4s23.772 31.086 32.914 53.029c7.315 21.943 12.8 43.885 14.628 65.829 1.829 23.772 1.829 45.714 0 69.486 10.971-1.828 21.943-3.657 32.914-3.657-3.657-9.143-5.486-25.6-7.315-47.543s-3.657-43.885-9.143-67.657h27.428c0-9.143-1.829-20.115-1.829-36.572v-42.057c0-12.8 1.829-20.115 7.315-21.943 5.486 0 10.971-1.829 16.457 0 5.486 0 10.971 3.657 12.8 9.143s3.657 16.457 5.486 31.086c9.143-5.486 18.286-9.143 29.257-10.971-7.315-18.286-10.971-31.086-16.457-36.572z" />
<glyph unicode="&#xe65c;" glyph-name="card" d="M456.672 260.368h-290.544c-30.56 0-55.328-26.176-55.328-58.464v-175.424c0-32.304 24.768-58.48 55.328-58.48h290.544c30.56 0 55.328 26.192 55.328 58.48v175.424c0 32.288-24.768 58.464-55.328 58.464zM193.792 231.136h235.2c25.776 0 47.36-18.64 53.536-43.856h-342.256c6.144 25.216 27.744 43.856 53.52 43.856zM484.336 55.712c0-32.304-24.768-58.464-55.328-58.464h-235.2c-30.56 0-55.344 26.176-55.344 58.464v58.464h345.872v-58.464zM419.52 304.24l-25.616 129.264c-6.256 31.616-35.6 51.872-65.504 45.248l-284.384-62.864c-29.92-6.624-49.088-37.6-42.832-69.216l34.016-171.696c3.984-20.064 17.28-35.488 34.080-42.448v113.232c0 32.288 24.784 58.48 55.328 58.48h294.912zM282.736 423.856l40.624 8.992c14.976 3.312 29.632-6.832 32.752-22.64l5.664-28.624c3.12-15.808-6.464-31.296-21.424-34.608l-40.624-8.976c-14.96-3.312-29.616 6.832-32.752 22.624l-5.664 28.624c-3.12 15.808 6.464 31.296 21.424 34.608z" />
<glyph unicode="&#xe65d;" glyph-name="title-back" d="M199.808 224l168.16 193.216c10.544 10.704 10.544 28.064 0 38.768-10.56 10.704-27.664 10.704-38.208 0l-181.056-208.032c-1.664-1.072-3.232-2.288-4.672-3.744-5.488-5.568-8.048-12.928-7.84-20.208-0.208-7.28 2.352-14.64 7.84-20.208 1.44-1.472 3.024-2.688 4.672-3.744l181.056-208.016c10.528-10.72 27.648-10.72 38.208 0 10.544 10.704 10.544 28.048 0 38.736l-168.16 193.232z" />
<glyph unicode="&#xe65e;" glyph-name="font-early" d="M175.543 289.828h160.914v-36.571h-160.915v36.572zM175.543 346.514h160.914v-34.743h-160.915v34.743zM475.428 480h-438.857c-20.114 0-36.572-16.457-36.572-36.572v-438.857c0-20.115 16.457-36.571 36.572-36.571h438.857c20.115 0 36.572 16.457 36.572 36.572v438.857c0 20.115-16.457 36.572-36.572 36.572zM405.943 156.343c-20.115 0-36.572 1.829-51.2 1.829h-84.115c0-40.228 0-69.486 1.829-87.772h-31.085c0 25.6 1.828 54.857 1.828 87.772h-84.115c-14.629 0-32.915 0-53.029-1.829v29.257c20.114 0 38.4-1.829 53.029-1.829h84.115v43.886h-95.085c0 21.943 1.828 45.715 1.828 73.143s0 51.2-1.828 71.315h215.771c0-18.286-1.829-42.057-1.829-69.486s0-53.029 1.829-74.971h-93.257v-43.885h84.115c12.8 0 31.086 0 51.2 1.829v-29.257z" />
<glyph unicode="&#xe65f;" glyph-name="font-fan" d="M475.428 480h-438.857c-20.114 0-36.572-16.457-36.572-36.572v-438.857c0-20.115 16.457-36.571 36.572-36.571h438.857c20.115 0 36.572 16.457 36.572 36.572v438.857c0 20.115-16.457 36.572-36.572 36.572zM217.6 207.543c3.657 23.772 7.315 47.543 5.486 71.315 0 23.772-1.828 51.2-1.828 78.628 12.8 0 36.572 1.829 69.486 3.657s60.343 7.314 84.115 14.628c1.829-10.971 9.143-21.943 18.286-32.914-18.286 0-67.657-3.657-144.457-9.143v-42.057h129.828c-3.657-20.115-7.315-38.4-12.8-54.857s-9.143-31.085-14.628-43.886c10.971-10.971 27.428-25.6 47.543-47.543-7.315-5.486-16.457-12.8-21.943-21.943-12.8 16.457-25.6 31.086-38.4 43.885-10.971-12.8-21.943-23.772-32.914-31.086s-23.772-14.628-38.4-21.943c-5.486 9.143-12.8 16.457-21.943 21.943 14.629 5.486 27.429 12.8 40.228 20.115s23.772 18.286 32.914 31.086c-16.457 14.628-32.914 27.428-51.2 42.057l16.457 21.943c23.772-18.285 40.228-31.085 51.2-40.229 7.315 18.286 12.8 38.4 16.457 62.172h-100.572c0-23.772-1.828-40.229-1.828-51.2s-3.657-25.6-9.143-42.057c-5.486-16.457-12.8-34.743-25.6-54.857-7.315 5.486-16.457 10.971-25.6 14.628 14.629 20.115 23.772 43.885 29.257 67.657zM155.429 379.428c9.143-29.257 18.285-51.2 21.943-64-7.315-1.828-16.457-5.486-27.428-10.971-5.486 20.115-12.8 40.228-21.943 64 7.315 1.829 16.457 5.486 27.429 10.971zM400.457 74.057c-36.572 0-71.315 0-100.572 0-31.086 0-54.857 3.657-76.8 9.143-20.114 5.486-36.572 10.971-47.543 16.457s-20.114 5.486-27.428-1.829c-7.315-7.315-14.629-16.457-21.943-29.257-9.143 7.315-18.285 14.628-27.428 20.115 20.114 18.286 34.743 31.086 43.886 36.572v115.2c-10.971 0-21.943 0-36.572-1.828v25.6c14.629 0 27.428-1.828 38.4-1.828h25.6c0-16.457-1.828-34.743-1.828-51.2v-80.457c25.6-20.115 64-29.257 115.2-29.257 53.029 0 95.086 1.829 128 7.315 0-7.315-5.486-18.286-10.971-34.743z" />
<glyph unicode="&#xe660;" glyph-name="font-mortgage" d="M254.172 335.543v-73.143h54.857c0 12.8 0 38.4-1.829 76.8-20.115-1.829-38.4-1.829-53.029-3.657zM475.428 480h-438.857c-20.114 0-36.572-16.457-36.572-36.572v-438.857c0-20.115 16.457-36.571 36.572-36.571h438.857c20.115 0 36.572 16.457 36.572 36.572v438.857c0 20.115-16.457 36.572-36.572 36.572zM213.943 288c-5.486 0-18.285 1.828-38.4 1.828v-56.685c16.457 7.315 29.257 12.8 36.572 14.629 0-7.315 0-14.629 1.828-23.772-7.315-1.829-20.114-7.315-36.571-12.8v-91.428c0-14.628-3.657-25.6-9.143-31.086-7.315-5.486-20.114-10.971-42.057-14.628-1.829 9.143-5.486 20.115-10.972 31.086 14.629 0 25.6 1.829 29.257 3.657 5.486 1.829 7.315 7.315 7.315 16.457v73.143c-18.285-7.315-31.085-12.8-40.228-16.457-3.657 7.315-7.314 16.457-12.8 27.428 10.972 1.829 27.428 7.315 51.2 16.457v65.829c-12.8 0-29.257 0-47.543-1.829v23.772c18.285 0 34.743-1.829 47.543-1.829 0 31.085 0 53.029-1.828 71.315h27.429c0-16.457-1.828-40.228-1.828-71.315 20.114 0 32.915 0 38.4 1.829v-25.6zM305.372 74.057c-9.143 12.8-18.286 25.6-29.257 36.572 5.486 5.486 12.8 10.971 18.286 18.286 10.971-14.628 21.943-27.428 32.914-38.4-7.315-3.657-14.628-9.143-21.943-16.457zM396.8 86.857c-5.486-7.315-10.971-9.143-20.115-9.143-7.315 0-16.457 9.143-27.428 23.772s-20.115 36.572-25.6 62.171c-7.315 25.6-10.971 51.2-12.8 74.971h-56.685v-100.572c9.143 9.143 21.943 21.943 36.572 36.572 3.657-9.143 7.315-18.286 12.8-25.6-16.457-12.8-36.572-32.914-60.343-62.171l-18.286 21.943c5.486 7.315 7.315 16.457 7.315 27.428v173.714c0 18.286 0 34.743-1.828 47.543 25.6 0 49.371 3.657 73.143 7.315s45.714 9.143 64 16.457c3.657-9.143 10.971-20.114 16.457-29.257-10.971 0-29.257-3.657-54.857-7.315 0-40.228 1.829-67.657 1.829-80.457 25.6 0 49.372 0 71.315 1.829v-25.6c-21.943 0-43.885 1.828-69.486 1.828 0-18.285 3.657-38.4 9.143-62.172s12.8-40.228 20.115-51.2c7.315-10.971 12.8-14.628 14.628-10.971 3.657 3.657 7.315 14.628 9.143 32.914 7.315-9.143 16.457-14.628 27.428-18.286-5.486-25.6-10.971-38.4-16.457-45.714z" />
<glyph unicode="&#xe661;" glyph-name="no-select" d="M16 224c0-132.336 107.664-240 240-240s240 107.664 240 240c0 132.336-107.664 240-240 240s-240-107.664-240-240zM40.064 224c0 119.040 96.88 215.92 215.936 215.92s215.936-96.88 215.936-215.92c0-119.056-96.88-215.936-215.936-215.936s-215.936 96.88-215.936 215.936z" />
<glyph unicode="&#xe662;" glyph-name="select" d="M256 464c-132.336 0-240-107.664-240-240s107.664-240 240-240 240 107.664 240 240c0 132.336-107.664 240-240 240zM387.744 296.256l-121.872-163.6c-7.92-10.64-22.96-12.848-33.6-4.928-2.208 1.648-3.952 3.648-5.424 5.792l-103.2 77.072c-10.624 7.936-12.816 22.976-4.88 33.6 7.92 10.608 22.976 12.816 33.6 4.88l90.176-67.376 106.688 143.184c7.904 10.64 22.944 12.848 33.584 4.928 10.656-7.904 12.848-22.944 4.928-33.552z" />
<glyph unicode="&#xe663;" glyph-name="monthvista" d="M491.072-18.197h-470.144c-10.688 0-21.376 10.688-21.376 21.376v373.995c0 17.707 14.357 32.064 32.064 32.064h53.418v-52.224c0-21.056 10.688-33.216 32.064-33.216h49.856c21.376 0 32.064 19.968 32.064 31.594v53.845h113.963v-53.845c0-11.627 10.688-31.594 32.064-31.594h49.856c21.376 0 32.064 19.968 32.064 31.594v53.845h53.418c17.707 0 32.064-14.357 32.064-32.064v-373.995c-0.021-10.688-10.688-21.376-21.376-21.376zM483.947 295.36h-455.894v-271.936c0-13.056 10.197-11.819 22.784-11.819h410.304c12.587 0 22.805-1.238 22.805 11.818v271.936zM241.75 214.378l-42.731-22.848v45.696l53.418 29.994h32.064v-228.459h-42.731v175.616zM377.088 351.978h-14.25c-11.798 0-21.376 9.43-21.376 21.056v72.086c0 11.626 9.579 21.056 21.376 21.056h14.25c11.798 0 21.376-9.43 21.376-21.056v-72.086c0-11.626-9.558-21.056-21.376-21.056zM149.162 351.978h-14.25c-11.797 0-21.376 9.43-21.376 21.056v72.086c0 11.626 9.579 21.056 21.376 21.056h14.25c11.797 0 21.376-9.43 21.376-21.056v-72.086c-0.022-11.626-9.578-21.056-21.376-21.056z" />
<glyph unicode="&#xe664;" glyph-name="book-help" d="M306.976 351.168c-13.344 6.432-28.72 9.648-46.16 9.648-18.752 0-35.152-3.84-49.216-11.536-14.064-7.68-24.752-17.392-32.096-29.12-7.328-11.712-10.992-23.296-10.992-34.704 0-5.536 2.304-10.672 6.928-15.408 4.64-4.752 10.32-7.12 17.040-7.12 11.408 0 19.168 6.8 23.264 20.368 4.336 12.992 9.616 22.8 15.856 29.472s15.984 10 29.2 10c11.296 0 20.528-3.312 27.664-9.92 7.152-6.624 10.736-14.72 10.736-24.336 0-4.928-1.168-9.488-3.52-13.696-2.336-4.208-5.232-8.016-8.656-11.44s-8.992-8.496-16.672-15.232c-8.784-7.696-15.744-14.336-20.912-19.92s-9.328-12.080-12.448-19.472-4.688-16.144-4.688-26.24c0-8.064 2.144-14.112 6.4-18.208s9.536-6.128 15.776-6.128c12.016 0 19.168 6.256 21.456 18.752 1.312 5.888 2.304 10 2.976 12.336 0.656 2.336 1.6 4.688 2.8 7.024 1.184 2.336 3.024 4.928 5.488 7.744 2.464 2.832 5.744 6.096 9.84 9.808 14.784 13.232 25.008 22.64 30.736 28.224 5.696 5.584 10.624 12.224 14.784 19.92 4.144 7.696 6.224 16.656 6.224 26.864 0 12.992-3.648 24.992-10.912 36.064-7.264 11.088-17.552 19.824-30.896 26.256zM256.496 141.76c-7.696 0-14.192-2.576-19.488-7.728-5.28-5.168-7.92-11.552-7.92-19.12 0-8.528 2.72-15.168 8.192-19.92s11.872-7.104 19.216-7.104c7.072 0 13.328 2.4 18.752 7.2 5.408 4.816 8.112 11.424 8.112 19.824 0 7.584-2.592 13.952-7.744 19.12-5.184 5.152-11.552 7.728-19.12 7.728zM256 464c-132.336 0-240-107.664-240-240s107.664-240 240-240 240 107.664 240 240c0 132.336-107.664 240-240 240zM256 31.232c-106.288 0-192.768 86.48-192.768 192.768s86.48 192.752 192.768 192.752c106.288 0 192.752-86.464 192.752-192.752s-86.464-192.768-192.752-192.768z" />
<glyph unicode="&#xe665;" glyph-name="popup-closed" d="M256 464c-132.544 0-240-107.456-240-240s107.456-240 240-240 240 107.456 240 240-107.456 240-240 240zM338.704 143.28c-11.024-9.008-27.136-7.136-36 4.16l-46.704 48.192-46.688-48.192c-8.88-11.296-24.992-13.168-36.016-4.16-11.008 9.008-12.768 25.504-3.904 36.816l50.832 52.448-46.064 47.536c-8.88 11.328-7.12 27.808 3.904 36.816 11.008 9.008 27.136 7.152 36-4.16l41.936-43.28 41.936 43.28c8.864 11.312 24.992 13.168 36 4.16 11.024-8.992 12.784-25.488 3.904-36.816l-46.064-47.536 50.832-52.448c8.864-11.312 7.104-27.792-3.904-36.816z" />
<glyph unicode="&#xe666;" glyph-name="personvista" d="M480.426 53.014h-448.853c-17.706 0-32.064 14.358-32.064 32.064v277.846c0 17.707 14.357 32.064 32.064 32.064h448.853c17.707 0 32.064-14.358 32.064-32.064v-277.866c0-17.685-14.358-32.043-32.064-32.043zM256 345.11c0 11.797-9.578 21.376-21.376 21.376h-185.238c-11.797 0-21.376-9.558-21.376-21.376v-213.739c0-11.798 9.579-21.376 21.376-21.376h8.853c-1.109 4.608-1.728 9.365-1.728 14.25 0 39.36 38.272 71.254 85.483 71.254s85.504-31.894 85.504-71.254c0-4.885-0.597-9.642-1.728-14.25h8.853c11.798 0 21.376 9.558 21.376 21.376v213.738zM472.896 281.002h-177.322c-6.123 0-11.072-6.378-11.072-14.25s4.971-14.25 11.072-14.25h177.322c6.123 0 11.072 6.378 11.072 14.25s-4.95 14.25-11.072 14.25zM472.896 195.498h-177.322c-6.123 0-11.072-6.378-11.072-14.25s4.971-14.25 11.072-14.25h177.322c6.123 0 11.072 6.378 11.072 14.25 0.022 7.872-4.95 14.25-11.072 14.25zM142.016 224c-31.466 0-57.002 25.514-57.002 57.002 0 31.466 25.514 57.002 57.002 57.002s57.002-25.514 57.002-57.002c-0.022-31.488-25.536-57.002-57.002-57.002z" />
<glyph unicode="&#xe667;" glyph-name="processvista" d="M330.624-33.344l63.978 48.128 66.133-48.128h29.866v449.173c0 35.435-28.651 64.171-64 64.171h-319.978c-35.35 0-64-28.736-64-64.171v-449.173h29.867l66.133 48.128 64-48.128 64 48.128 64-48.128zM378.624 159.168h-224c-8.832 0-16 7.19-16 16.043s7.168 16.043 16 16.043h223.978c8.832 0 16-7.19 16-16.043 0.022-8.875-7.147-16.043-15.978-16.043zM378.624 255.786h-224c-8.832 0-16 7.19-16 16.042s7.168 16.043 16 16.043h223.978c8.832 0 16-7.168 16-16.043s-7.147-16.042-15.978-16.042zM378.624 351.659h-224c-8.832 0-16 7.19-16 16.043s7.168 16.043 16 16.043h223.978c8.832 0 16-7.19 16-16.043 0.022-8.853-7.147-16.043-15.978-16.043z" />
<glyph unicode="&#xe668;" glyph-name="security" d="M469.334 369.067c0 2.133 0 2.133 0 0v4.266c0 0 0 0 0 2.134s0 2.134 0 4.267c0 0 0 0 0 2.133-4.267 6.4-10.666 12.8-19.2 12.8-2.134 0-4.267 0-6.4-2.133v2.133c-57.6-4.267-119.466 29.867-162.134 68.267 0 0 0 0 0 0s0 2.133 0 2.133c-2.134 10.667-14.933 17.067-25.6 14.934h-2.133c-8.534-2.134-12.8-8.534-14.934-17.067 0 0 0 0 0 0-46.934-38.4-110.933-72.534-168.534-68.267v-2.133c-2.133 2.133-2.133 2.133-4.266 2.133-4.267 0-8.534-2.133-10.666-2.133s-2.133-2.134-2.133-2.134c0 0-2.133-2.133-2.133-2.133-4.267-2.134-6.4-6.4-6.4-10.666s0-8.534 0-10.667v-100.266c0-55.467 21.334-106.667 57.6-145.067 0 0 2.133-2.134 2.133-2.134l83.2-81.067c8.534-8.534 21.334-8.534 29.867 0s8.534 21.334 0 29.866l-57.6 55.466v2.134c-6.4 4.267-10.666 8.534-14.934 12.8l-2.133 2.134c-32 29.866-53.334 72.534-55.466 121.6 0 0 0 2.134 0 2.134v87.466c57.6 0 115.2 27.733 162.133 66.134 0 0 0 0 2.133 0h2.133c4.266-2.134 8.533 0 12.8 0 46.933-38.4 106.666-66.134 162.133-66.134v-85.334c0-53.334-23.466-100.267-61.866-130.133l-83.2-81.067c0 0 0 0 0 0l-53.334-51.2c-8.534-8.534-8.534-21.334 0-29.866s21.334-8.533 29.866 0l147.2 140.8c0 0 0 2.134 2.134 2.134 36.267 38.4 59.733 87.466 59.733 145.067 0 0 0 2.133 0 2.133v104.534zM362.666 245.333c0 12.8-8.534 21.333-21.334 21.333h-64v64c0 12.8-8.534 21.334-21.334 21.334s-21.334-8.534-21.334-21.334v-64h-64c-12.8 0-21.334-8.534-21.334-21.334s8.534-21.334 21.334-21.334h64v-66.133c0-12.8 8.534-21.334 21.334-21.334s21.334 8.534 21.334 21.334v66.134h64c12.8 0 21.334 8.534 21.334 21.334z" />
<glyph unicode="&#xe669;" glyph-name="visa2" d="M481.92 369.134l-82.304-326.034c-5.833-23.077-49.262-36.846-49.262-33.408v365.714c0 20.096-16.274 36.388-36.352 36.388h-136.941l8.192 32.421c6.345 25.107 31.835 40.32 56.941 33.957l205.769-52.041c25.106-6.345 40.301-31.872 33.957-56.996zM244.499 215.644c0.969-2.908 2.596-5.833 3.602-8.558 0.933-2.469 1.5-5.906 2.743-8.192 4.681-8.521 8.173 0.329 10.387 5.779 1.243 3.017 2.505 7.753 1.28 10.971-1.389 3.767-7.827 11.411-8.32 12.16l-6.18 2.798c-8.887-0.091-6.071-7.333-3.511-14.958zM155.319 216.558c-1.006 3.693 2.030 7.241 5.449 9.728 3.401 2.505 7.369 3.383 10.733 6.089 3.694 2.944 7.131 5.924 10.588 9.143 5.687 5.321 14.099 8.028 19.493 14.501 3.127 3.767 4.023 7.643 5.101 11.922 1.645 6.492 2.249 8.173-3.913 10.642-8.777 3.438-35.273 0.768-39.827 0.329-19.036 1.627-26.953 4.9-34.048 4.864-5.175-0.036-10.039 0.439-14.592-2.396-3.328-2.084-9.308-7.808-4.608-11.959 1.261-1.115 5.065-0.695 6.784-1.701 1.865-1.171 2.797-2.962 3.913-4.626 2.816-4.206 2.432-8.302 2.432-13.385 0-8.996-0.403-19.219 5.12-26.423 3.017-3.932 7.643-7.515 11.008-11.264 3.419-3.748 7.004-7.607 11.556-10.039 6.93-3.785 20.096-5.212 11.556 5.449-1.683 2.121-6.089 6.711-6.748 9.125zM212.864 191.324c-4.535 1.445-9.363 2.212-13.385 4.864-11.556 7.589-20.681 3.657-20.681 3.657-8.466 0-8.429-14.921-7.315-20.718 1.683-8.685 9.82-14.062 9.746-23.077-0.036-6.784-1.645-21.705 4.827-25.929 9.015-5.906 18.012 6.308 22.254 12.471 2.669 3.895 4.48 8.685 6.692 12.489 1.883 3.291 3.767 7.168 5.486 10.368 3.145 5.796 9.856 15.762 3.072 21.998-2.487 2.249-7.589 2.871-10.697 3.877zM285.623 385.884h-220.636c-20.078 0-36.352-16.293-36.352-36.389v-344.704c0-20.096 16.274-36.407 36.352-36.407h220.636c20.115 0 36.389 16.329 36.389 36.407v344.704c0 20.096-16.274 36.389-36.389 36.389zM264.631 6.272h-181.23v25.289h181.23v-25.289zM175.323 108.818c-57.874 0-104.942 47.269-104.942 105.363 0 58.075 47.068 105.344 104.942 105.344 57.856 0 104.924-47.269 104.924-105.344 0-58.094-47.067-105.363-104.923-105.363z" />
<glyph unicode="&#xe66a;" glyph-name="hotel2" d="M451.968 346.788v19.932h-391.936v-19.932h19.767v-358.857h-19.767v-19.931h156.416v99.693c0 22.016 17.701 39.863 39.534 39.863s39.552-17.847 39.552-39.863v-99.693h156.435v19.932h-19.785v358.857h19.785zM186.788 67.693h-59.282v49.829h59.3v-49.829zM186.788 167.369h-59.282v49.81h59.3v-49.81zM186.788 267.044h-59.282v49.847h59.3v-49.847zM285.641 167.369h-59.319v49.81h59.319v-49.81zM285.641 267.044h-59.319v49.847h59.319v-49.847zM384.476 67.693h-59.3v49.829h59.3v-49.829zM384.476 167.369h-59.3v49.81h59.3v-49.81zM384.476 267.044h-59.3v49.847h59.3v-49.847zM260.955 480l-121.18-94.72h232.411z" />
<glyph unicode="&#xe66b;" glyph-name="independent" d="M73.948 208.896h-37.212c-14.812 0-26.825-11.995-26.825-26.825v-113.572c0-14.829 12.014-26.825 26.825-26.825h28.397l8.814 167.223zM475.283 208.896h-37.23l8.832-167.223h28.397c14.812 0 26.807 11.995 26.807 26.825v113.572c0 14.829-11.995 26.825-26.807 26.825zM407.991 336.439c0 0-1.317 7.351-5.925 14.537-1.938-20.846-4.389-46.665-5.449-57.856l-0.073-0.659-0.11-0.659c-5.376-31.762-34.871-52.279-75.136-52.279h-47.123v-48.603c0-7.716-6.272-14.007-14.007-14.007h-8.32c-7.735 0-13.988 6.291-13.988 14.007v48.603h-47.123c-40.302 0-69.778 20.517-75.154 52.279l-0.109 0.659-0.073 0.659c-1.043 11.154-3.475 36.773-5.394 57.582-4.572-7.095-5.961-14.245-5.961-14.245l-19.2-312.027c0-12.599 13.44-32.293 39.004-39.004 0 0 35.255-15.25 128.421-16.073v-0.073c0.018 0 0.055 0 0.073 0 1.262 0 2.432 0.036 3.675 0.036s2.377-0.036 3.639-0.036c0.036 0 0.073 0 0.091 0v0.073c93.166 0.823 128.384 16.073 128.384 16.073 25.582 6.711 39.040 26.387 39.040 39.004l-19.181 312.009zM329.783 431.341c-3.95 26.733-26.99 47.36-54.803 47.36h-37.961c-27.831 0-50.871-20.627-54.803-47.36-33.298-5.924-57.746-25.435-56.631-49.5 0.201-4.48 8.028-87.003 8.028-87.003 4.060-24.027 28.288-37.011 57.106-37.011h130.56c28.8 0 53.029 12.983 57.088 37.011 0 0 7.863 82.524 8.046 87.003 1.115 24.064-23.315 43.575-56.631 49.5zM237.019 454.491h37.961c13.714 0 25.271-8.941 29.459-21.266h-96.877c4.206 12.343 15.744 21.266 29.459 21.266z" />
<glyph unicode="&#xe66c;" glyph-name="mailboat" d="M302.208 46.409l9.527 12.526 9.527-12.526c7.607-10.039 17.92-17.060 29.531-20.572 68.937 52.553 127.635 142.683 127.635 180.041 0 52.498-121.143 93.513-214.363 96.128v-278.125c15.123 2.195 28.727 10.057 38.144 22.528zM158.099 25.106c12.581 3.255 23.79 10.569 31.945 21.303l9.527 12.526 9.508-12.526c9.472-12.471 23.059-20.334 38.144-22.528v278.163c-99.237-1.774-216.832-38.656-216.832-98.267 0-41.837 58.825-128.147 127.708-178.67zM404.791 362.387c-7.899 30.573-21.504 47.981-48 47.981h-79.817l-4.023 25.289h74.167l-5.651 14.775-72.284 8.868-2.322 14.537c0 3.273-2.651 5.906-5.906 5.906h-10.588c-3.273 0-5.906-2.633-5.906-5.906l-2.304-14.537-72.302-8.868-5.65-14.775h74.167l-4.023-25.289h-82.286c-26.514 0-40.631-18.469-48-47.981l-16.896-68.499c55.296 23.516 126.025 32.877 168.832 32.877 38.711 0 109.751-11.191 165.65-35.731l-16.86 71.351zM369.152 0.365c23.113 0 43.611 11.063 56.576 28.178 13.001-17.115 33.463-28.178 56.576-28.178v-32.604c-20.901 0-40.284 6.253-56.576 16.823-16.293-10.569-35.675-16.823-56.576-16.823s-40.284 6.253-56.576 16.823c-16.293-10.569-35.675-16.823-56.576-16.823s-40.32 6.253-56.595 16.823c-16.274-10.569-35.675-16.823-56.558-16.823s-40.302 6.253-56.576 16.823c-16.275-10.569-35.675-16.823-56.576-16.823v32.603c23.113 0 43.575 11.063 56.576 28.178 12.983-17.115 33.445-28.178 56.576-28.178 23.113 0 43.575 11.063 56.558 28.178 12.983-17.115 33.463-28.178 56.594-28.178 23.113 0 43.575 11.063 56.576 28.178 12.964-17.115 33.463-28.178 56.576-28.178z" />
</font>
</defs>
</svg>
